<svg width="193" height="193" viewBox="0 0 193 193" fill="none" xmlns="http://www.w3.org/2000/svg">
<path d="M86.8093 192.51C85.2051 192.327 83.8635 191.879 82.7836 191.165C81.7017 190.454 80.9197 189.516 80.4356 188.351C79.9495 187.188 79.7927 185.854 79.9652 184.349C80.1357 182.853 80.5875 181.598 81.3215 180.582C82.0535 179.568 83.0256 178.839 84.2379 178.398C85.451 177.955 86.8593 177.824 88.4635 178.006L92.7596 178.496L91.1054 193L86.8093 192.51ZM88.3263 179.21C86.3066 178.98 84.7073 179.332 83.5284 180.268C82.3504 181.206 81.6527 182.622 81.4352 184.517C81.2186 186.424 81.5782 187.976 82.5131 189.17C83.449 190.364 84.9268 191.076 86.9465 191.306L89.7884 191.628L91.1682 179.531L88.3263 179.21Z" fill="white"/>
<path d="M71.5605 189.731L75.206 175.596L76.625 175.964L72.9795 190.099L71.5605 189.731Z" fill="white"/>
<path d="M66.2849 172.489C67.1767 172.842 67.8999 173.307 68.4565 173.884C69.0132 174.462 69.3767 175.105 69.5463 175.817C69.7168 176.53 69.6786 177.234 69.4326 177.929L67.9901 177.361C68.189 176.673 68.1273 175.978 67.8058 175.276C67.4844 174.576 66.8259 174.028 65.8302 173.633C64.9081 173.271 64.0859 173.22 63.3647 173.48C62.6414 173.742 62.1358 174.235 61.8477 174.958C61.6184 175.54 61.5831 176.069 61.7418 176.542C61.8986 177.017 62.1632 177.429 62.5336 177.777C62.9021 178.124 63.4352 178.555 64.1329 179.07C64.9434 179.674 65.5676 180.196 66.0066 180.638C66.4457 181.082 66.7553 181.624 66.9356 182.265C67.116 182.905 67.0415 183.646 66.7122 184.487C66.4359 185.187 66.0066 185.74 65.4265 186.145C64.8464 186.55 64.1663 186.778 63.3843 186.828C62.6003 186.879 61.7801 186.737 60.9226 186.4C59.6682 185.903 58.7784 185.197 58.2532 184.28C57.7259 183.362 57.5937 182.394 57.8573 181.375L59.335 181.959C59.2047 182.549 59.3135 183.163 59.6604 183.801C60.0053 184.441 60.6188 184.934 61.4988 185.279C62.3171 185.603 63.0844 185.656 63.7998 185.436C64.5132 185.216 65.0179 184.731 65.3128 183.982C65.5402 183.409 65.5745 182.889 65.4147 182.422C65.253 181.956 64.9855 181.545 64.6112 181.187C64.2349 180.828 63.7057 180.396 63.0236 179.889C62.2377 179.296 61.6203 178.772 61.1735 178.318C60.7266 177.865 60.412 177.318 60.2288 176.675C60.0465 176.034 60.118 175.3 60.4444 174.472C60.6952 173.837 61.1019 173.302 61.6634 172.865C62.2259 172.429 62.906 172.166 63.7057 172.077C64.5034 171.989 65.3628 172.126 66.2849 172.489Z" fill="white"/>
<path d="M51.3943 164.988L51.3512 172.076L53.66 173.463L56.7998 168.238L58.0541 168.991L50.5359 181.503L46.7767 179.241C45.3813 178.402 44.5248 177.431 44.2053 176.329C43.8839 175.225 44.0485 174.132 44.6992 173.048C45.246 172.14 45.9692 171.524 46.8708 171.198C47.7724 170.87 48.7896 170.917 49.9205 171.339L49.893 164.087L51.3943 164.988ZM53.0485 174.482L50.5241 172.965C49.5471 172.377 48.6681 172.174 47.8861 172.354C47.1021 172.534 46.47 173.024 45.9888 173.824C45.4949 174.647 45.3529 175.424 45.5616 176.156C45.7684 176.89 46.3848 177.565 47.4118 178.183L49.9165 179.692L53.0485 174.482Z" fill="white"/>
<path d="M35.9233 171.773L41.956 164.843C42.9075 163.753 43.3534 162.72 43.2927 161.742C43.2299 160.762 42.7468 159.879 41.8423 159.092C40.9407 158.306 40.0098 157.951 39.0475 158.026C38.0861 158.103 37.1248 158.692 36.1624 159.794L30.1298 166.724L29.0283 165.764L35.0492 158.849C36.2644 157.454 37.5491 156.728 38.9024 156.67C40.2538 156.61 41.5228 157.097 42.7086 158.132C43.8953 159.165 44.5529 160.355 44.6803 161.703C44.8057 163.051 44.2609 164.423 43.0457 165.819L37.0248 172.733L35.9233 171.773Z" fill="white"/>
<path d="M21.5073 150.646C22.4824 149.857 23.5251 149.54 24.6354 149.697C25.7467 149.852 26.8187 150.567 27.8536 151.845L29.7077 154.131L34.5408 150.215L35.462 151.351L24.1219 160.543L21.3466 157.121C20.3226 155.856 19.8473 154.661 19.9198 153.535C19.9933 152.409 20.5225 151.445 21.5073 150.646ZM26.8775 152.637C25.4409 150.863 23.9651 150.589 22.452 151.814C21.6945 152.428 21.2917 153.104 21.2447 153.84C21.1977 154.577 21.5505 155.41 22.3031 156.341L24.1572 158.627L28.7316 154.922L26.8775 152.637Z" fill="white"/>
<path d="M10.5259 140.711L11.5725 140.103L13.603 143.612L25.19 136.909L25.9231 138.171L14.336 144.874L16.3743 148.402L15.3277 149.009L10.5259 140.711Z" fill="white"/>
<path d="M7.55566 134.09L20.9576 128.304L21.5378 129.649L8.1358 135.434L7.55566 134.09Z" fill="white"/>
<path d="M16.0634 113.146L16.4554 114.549L6.78516 125.623L18.6153 122.338L19.0073 123.749L4.94283 127.653L4.55085 126.242L14.2015 115.176L2.39101 118.453L1.99902 117.05L16.0634 113.146Z" fill="white"/>
<path d="M4.09402 97.9643C3.16698 98.4503 2.45846 99.1393 1.96946 100.03C1.4785 100.922 1.27369 101.943 1.35405 103.095C1.43048 104.18 1.74799 105.136 2.30657 105.961C2.86319 106.787 3.62266 107.418 4.584 107.854C5.54339 108.291 6.6331 108.468 7.85316 108.383C9.07419 108.3 10.1326 107.975 11.0282 107.407C11.9249 106.841 12.5942 106.11 13.0352 105.216C13.4772 104.322 13.6604 103.334 13.584 102.249C13.5134 101.235 13.2312 100.338 12.7373 99.5557C12.2434 98.7747 11.5731 98.1662 10.7264 97.7291C9.87972 97.2901 8.91152 97.0735 7.8218 97.0784L8.24514 103.205L7.06135 103.287L6.52825 95.6202L7.58661 95.5457C8.87036 95.5281 10.0512 95.7956 11.1302 96.3493C12.2071 96.901 13.0813 97.6801 13.7525 98.6855C14.4218 99.692 14.8021 100.848 14.8932 102.155C14.9873 103.503 14.758 104.749 14.2033 105.89C13.6467 107.033 12.8235 107.959 11.7338 108.669C10.6441 109.378 9.38484 109.782 7.95507 109.881C6.52629 109.981 5.2249 109.754 4.0509 109.203C2.87495 108.649 1.9332 107.845 1.22469 106.792C0.517157 105.739 0.115372 104.538 0.0212957 103.189C-0.0855201 101.635 0.209449 100.248 0.907182 99.0266C1.60296 97.8065 2.62604 96.8824 3.97643 96.2552L4.09402 97.9643Z" fill="white"/>
<path d="M1.51015 79.3257L15.8921 81.8265L15.6412 83.2651L1.25928 80.7643L1.51015 79.3257Z" fill="white"/>
<path d="M20.0975 66.4602L19.6545 67.8478L5.50385 71.8187L17.2007 75.5504L16.7538 76.9419L2.84619 72.5046L3.29305 71.1131L17.4241 67.1384L5.74688 63.4106L6.18982 62.0229L20.0975 66.4602Z" fill="white"/>
<path d="M11.161 51.438C11.9371 50.022 12.8603 48.9479 13.9284 48.2159C14.9976 47.4848 16.1618 47.1144 17.421 47.1066C18.6813 47.0987 19.9748 47.4594 21.3017 48.1884C22.6207 48.9126 23.6124 49.8064 24.2768 50.8696C24.9403 51.9309 25.247 53.1069 25.198 54.3975C25.151 55.6861 24.7394 57.0385 23.9632 58.4545L21.8857 62.245L9.0835 55.2285L11.161 51.438ZM22.901 57.8705C23.878 56.0889 24.1553 54.4749 23.732 53.0295C23.3106 51.585 22.264 50.4032 20.5922 49.4859C18.9096 48.5638 17.3387 48.31 15.8805 48.7255C14.4204 49.141 13.2013 50.2405 12.2233 52.0221L10.8474 54.5308L21.5251 60.3792L22.901 57.8705Z" fill="white"/>
<path d="M19.638 38.0728L26.7173 43.9291C27.8334 44.8541 28.8791 45.2736 29.8531 45.1873C30.8272 45.0991 31.6974 44.5915 32.4638 43.6664C33.2242 42.7443 33.5535 41.8035 33.4516 40.8441C33.3516 39.8857 32.7391 38.9391 31.6131 38.0062L24.5339 32.1499L25.4668 31.0249L32.5304 36.8694C33.9543 38.0483 34.7137 39.3144 34.8078 40.6677C34.9019 42.0191 34.4482 43.3009 33.4476 44.5131C32.4442 45.7234 31.2692 46.4093 29.9237 46.571C28.5782 46.7308 27.1935 46.2212 25.7686 45.0423L18.7051 39.1978L19.638 38.0728Z" fill="white"/>
<path d="M43.4929 34.3288C42.7608 34.951 42.0092 35.3734 41.2389 35.5949C40.4677 35.8144 39.7278 35.833 39.0203 35.6498C38.3128 35.4645 37.7091 35.1 37.2093 34.5561L38.3853 33.5526C38.8968 34.0495 39.5387 34.3209 40.3099 34.368C41.0802 34.413 41.8749 34.0877 42.6932 33.3919C43.4458 32.752 43.877 32.0513 43.9868 31.2909C44.0965 30.5285 43.8986 29.8503 43.3949 29.2565C42.9872 28.7812 42.5374 28.5019 42.0464 28.4176C41.5545 28.3343 41.0674 28.3745 40.5843 28.5391C40.1032 28.7018 39.473 28.9684 38.695 29.3388C37.7806 29.77 37.0241 30.0757 36.4254 30.256C35.8276 30.4364 35.2043 30.456 34.5556 30.3148C33.9049 30.1737 33.2856 29.7602 32.6976 29.0722C32.2115 28.498 31.9254 27.8591 31.8391 27.1554C31.7529 26.4528 31.8725 25.7443 32.1958 25.0309C32.5173 24.3175 33.0288 23.6629 33.7285 23.067C34.7555 22.1919 35.8001 21.7372 36.8605 21.7029C37.9188 21.6696 38.8331 22.0077 39.6044 22.7182L38.397 23.7452C37.9345 23.3532 37.3406 23.1611 36.6135 23.1689C35.8874 23.1748 35.1651 23.4825 34.4458 24.094C33.7775 24.6644 33.3718 25.317 33.2307 26.054C33.0876 26.7889 33.2767 27.4631 33.7991 28.0766C34.1989 28.545 34.6438 28.8175 35.1318 28.8959C35.6179 28.9723 36.1069 28.9292 36.5978 28.7665C37.0898 28.6048 37.7189 28.3422 38.4872 27.9786C39.3829 27.5631 40.1375 27.2642 40.749 27.081C41.3605 26.8987 41.9896 26.8791 42.6383 27.0222C43.289 27.1633 43.9025 27.5729 44.4807 28.2491C44.9246 28.7694 45.2068 29.38 45.3273 30.0796C45.4498 30.7803 45.3626 31.5045 45.0647 32.2512C44.7688 32.996 44.2455 33.6888 43.4929 34.3288Z" fill="white"/>
<path d="M50.1919 11.8027L50.823 12.8376L47.3657 14.9504L54.3431 26.3728L53.0966 27.1333L46.1192 15.7108L42.6462 17.8354L42.0151 16.8005L50.1919 11.8027Z" fill="white"/>
<path d="M68.3874 19.6196L62.7311 15.3508L60.2381 16.3739L62.5508 22.0146L61.1984 22.5673L55.6597 9.05948L59.7167 7.39746C61.2239 6.77813 62.5165 6.67131 63.5934 7.07604C64.6694 7.4788 65.4485 8.26669 65.9297 9.43971C66.3295 10.4177 66.3893 11.3663 66.11 12.2855C65.8327 13.2057 65.1888 13.9926 64.1775 14.6453L70.0063 18.9571L68.3874 19.6196ZM59.7873 15.2724L62.5116 14.1553C63.567 13.7221 64.2559 13.1381 64.5773 12.4031C64.9007 11.6691 64.887 10.8705 64.5342 10.0081C64.1677 9.1173 63.6287 8.53716 62.9153 8.26767C62.2039 7.99622 61.2945 8.08736 60.1871 8.54206L57.4824 9.65138L59.7873 15.2724Z" fill="white"/>
<path d="M71.9053 3.31104L75.7154 17.4029L74.3042 17.787L70.4941 3.69518L71.9053 3.31104Z" fill="white"/>
<path d="M80.1258 2.72364L80.9372 8.11343L86.4093 7.29419L86.5857 8.48974L81.1136 9.30899L81.9367 14.7811L88.0321 13.8678L88.2124 15.0673L80.6706 16.2001L78.499 1.74368L86.0408 0.61084L86.2211 1.81031L80.1258 2.72364Z" fill="white"/>
<path d="M97.0063 14.9075C96.0469 14.9016 95.2031 14.7311 94.474 14.394C93.745 14.0549 93.1727 13.5845 92.7572 12.9828C92.3436 12.3792 92.1261 11.7089 92.1025 10.9719L93.6509 10.9798C93.7136 11.6932 94.0213 12.3194 94.576 12.8574C95.1296 13.3964 95.942 13.6688 97.0141 13.6766C98.0039 13.6825 98.7898 13.4326 99.3699 12.9279C99.9501 12.4242 100.242 11.7824 100.248 11.0033C100.253 10.3761 100.096 9.87046 99.7776 9.48631C99.4581 9.10021 99.0622 8.81112 98.5899 8.62002C98.1195 8.42991 97.4669 8.2202 96.6339 7.99285C95.6618 7.72434 94.8905 7.46269 94.3212 7.20888C93.7508 6.95311 93.2648 6.56014 92.863 6.029C92.4632 5.4959 92.2672 4.77759 92.275 3.87308C92.277 3.12047 92.4759 2.45018 92.8708 1.8622C93.2648 1.27422 93.8175 0.815599 94.5289 0.486332C95.2423 0.155105 96.0586 -0.00756934 96.9788 0.000270358C98.3273 0.00811006 99.4131 0.345217 100.236 1.01159C101.061 1.67797 101.534 2.53249 101.651 3.57517L100.064 3.56733C99.9716 2.96662 99.6492 2.43254 99.0956 1.96412C98.5409 1.49373 97.7912 1.25462 96.8456 1.24678C95.9675 1.24188 95.2345 1.47021 94.6465 1.93276C94.0585 2.3953 93.7616 3.03032 93.7567 3.8378C93.7508 4.45224 93.9076 4.94908 94.2271 5.32735C94.5456 5.70365 94.9444 5.99176 95.4227 6.18972C95.9009 6.38865 96.5496 6.6013 97.3708 6.82865C98.3165 7.10108 99.0809 7.36763 99.6639 7.6283C100.246 7.88701 100.738 8.28292 101.138 8.81602C101.538 9.34716 101.735 10.0576 101.73 10.9484C101.727 11.6305 101.543 12.2772 101.177 12.8887C100.81 13.5002 100.272 13.9922 99.5581 14.3626C98.8466 14.7311 97.996 14.9124 97.0063 14.9075Z" fill="white"/>
<path d="M141.199 18.1558L140.654 19.2573L130.94 14.4516L131.485 13.3501L141.199 18.1558Z" fill="white"/>
<path d="M161.037 46.7064C160.451 45.9479 160.065 45.1786 159.88 44.3976C159.697 43.6155 159.716 42.8747 159.935 42.175C160.155 41.4773 160.547 40.8922 161.111 40.4189L162.06 41.6419C161.536 42.1329 161.234 42.763 161.15 43.5313C161.066 44.2996 161.352 45.1071 162.009 45.9537C162.614 46.7377 163.295 47.2012 164.051 47.3453C164.808 47.4913 165.495 47.3257 166.113 46.8475C166.607 46.4633 166.907 46.0282 167.014 45.5422C167.121 45.0561 167.105 44.5671 166.963 44.0761C166.822 43.5871 166.583 42.9443 166.246 42.1476C165.859 41.2146 165.589 40.4464 165.439 39.8427C165.29 39.2371 165.299 38.6119 165.47 37.969C165.642 37.3261 166.086 36.7284 166.803 36.1737C167.398 35.7141 168.049 35.4593 168.755 35.4093C169.46 35.3574 170.162 35.5093 170.86 35.864C171.559 36.2198 172.191 36.7617 172.753 37.4908C173.578 38.557 173.984 39.6212 173.968 40.6815C173.952 41.7399 173.569 42.6375 172.82 43.3745L171.851 42.1201C172.264 41.6791 172.485 41.0951 172.514 40.368C172.542 39.6418 172.268 38.9039 171.691 38.1532C171.152 37.4584 170.519 37.0233 169.79 36.8479C169.062 36.6706 168.38 36.8283 167.743 37.3222C167.257 37.6966 166.964 38.1258 166.865 38.6119C166.765 39.096 166.784 39.5869 166.92 40.0857C167.058 40.5855 167.291 41.2264 167.618 42.0104C167.988 42.9217 168.251 43.6881 168.406 44.3074C168.56 44.9267 168.551 45.5578 168.378 46.2007C168.208 46.8435 167.771 47.4364 167.065 47.9803C166.526 48.3978 165.903 48.6516 165.196 48.7408C164.49 48.829 163.771 48.7074 163.04 48.3762C162.311 48.0469 161.642 47.4903 161.037 46.7064Z" fill="white"/>
<path d="M179.668 48.0434L167.113 55.4872L166.368 54.229L178.923 46.7852L179.668 48.0434Z" fill="white"/>
<path d="M173.899 69.9044L173.335 68.5599L181.515 56.3457L170.199 61.1083L169.63 59.7638L183.083 54.0996L183.652 55.4441L175.491 67.6505L186.788 62.8958L187.352 64.2403L173.899 69.9044Z" fill="white"/>
<path d="M182.343 72.1123C183.751 71.83 185.073 71.8849 186.31 72.2769C187.546 72.666 188.581 73.3294 189.415 74.2682C190.248 75.206 190.796 76.331 191.061 77.6432C191.382 79.2395 191.279 80.683 190.751 81.9746C190.223 83.2682 189.322 84.3128 188.047 85.1105L187.71 83.4289C188.595 82.8223 189.227 82.0452 189.603 81.0966C189.981 80.148 190.052 79.0798 189.814 77.8941C189.603 76.8406 189.166 75.9439 188.505 75.205C187.847 74.4652 187.009 73.9477 185.993 73.6528C184.975 73.3598 183.858 73.3362 182.641 73.5822C181.428 73.8252 180.413 74.277 179.595 74.9385C178.777 75.6019 178.206 76.4016 177.882 77.3374C177.558 78.2753 177.502 79.2709 177.714 80.3244C177.951 81.5101 178.424 82.4685 179.133 83.1976C179.84 83.9287 180.715 84.4049 181.755 84.6244L182.092 86.3061C180.62 86.0601 179.396 85.4378 178.416 84.4402C177.436 83.4446 176.786 82.1559 176.467 80.5752C176.203 79.2631 176.275 78.0126 176.683 76.8239C177.091 75.6372 177.784 74.6259 178.764 73.79C179.746 72.9531 180.94 72.3945 182.343 72.1123Z" fill="white"/>
<path d="M191.519 92.6018L186.074 92.7077L186.18 98.2425L184.969 98.266L184.863 92.7312L179.328 92.837L179.446 98.999L178.234 99.0226L178.085 91.3984L192.699 91.1162L192.848 98.7403L191.636 98.7638L191.519 92.6018Z" fill="white"/>
<path d="M178.26 110.663C179.548 113.593 180.775 115.912 181.941 117.621C183.109 119.33 184.404 120.35 185.829 120.683C186.764 120.902 187.568 120.843 188.24 120.506C188.911 120.171 189.371 119.476 189.62 118.421C189.86 117.388 189.723 116.516 189.208 115.802C188.696 115.091 187.913 114.576 186.86 114.258L187.182 112.874C188.665 113.305 189.725 114.04 190.36 115.081C190.996 116.124 191.153 117.331 190.835 118.703C190.526 120.014 189.908 120.99 188.981 121.631C188.053 122.271 186.911 122.433 185.555 122.117C183.913 121.733 182.483 120.68 181.263 118.958C180.041 117.238 178.932 115.212 177.935 112.882L176.178 120.404L174.979 120.122L177.245 110.424L178.26 110.663Z" fill="white"/>
<path d="M180.765 126.565C182.973 127.492 184.544 128.554 185.477 129.748C186.41 130.942 186.506 132.419 185.767 134.178C185.027 135.936 183.905 136.898 182.4 137.063C180.895 137.227 179.038 136.845 176.83 135.918C174.585 134.972 172.99 133.9 172.044 132.704C171.098 131.509 170.995 130.033 171.734 128.274C172.479 126.503 173.61 125.538 175.125 125.382C176.64 125.225 178.52 125.619 180.765 126.565ZM177.386 134.593C178.58 135.095 179.623 135.434 180.514 135.612C181.408 135.79 182.206 135.74 182.909 135.463C183.615 135.186 184.162 134.586 184.552 133.664C184.941 132.739 184.988 131.926 184.693 131.226C184.4 130.528 183.878 129.923 183.125 129.411C182.372 128.902 181.398 128.396 180.205 127.894C178.974 127.377 177.91 127.026 177.014 126.844C176.117 126.66 175.315 126.708 174.607 126.985C173.902 127.264 173.355 127.867 172.965 128.792C172.576 129.714 172.53 130.524 172.828 131.222C173.123 131.92 173.649 132.526 174.403 133.041C175.161 133.558 176.155 134.076 177.386 134.593Z" fill="white"/>
<path d="M168.98 136.972C169.225 140.165 169.616 142.762 170.152 144.761C170.687 146.762 171.571 148.155 172.801 148.939C173.614 149.454 174.393 149.663 175.138 149.567C175.882 149.473 176.546 148.968 177.129 148.054C177.698 147.16 177.859 146.292 177.611 145.451C177.362 144.609 176.793 143.863 175.902 143.213L176.666 142.013C177.923 142.912 178.678 143.957 178.932 145.149C179.188 146.343 178.938 147.534 178.183 148.724C177.459 149.861 176.553 150.578 175.463 150.876C174.375 151.174 173.245 150.947 172.072 150.198C170.65 149.293 169.648 147.827 169.066 145.8C168.484 143.774 168.108 141.494 167.941 138.96L163.79 145.478L162.751 144.816L168.102 136.412L168.98 136.972Z" fill="white"/>
<path d="M161.435 148.257C161.159 151.448 161.12 154.071 161.321 156.128C161.522 158.187 162.168 159.704 163.258 160.679C163.973 161.322 164.706 161.656 165.457 161.682C166.209 161.711 166.947 161.322 167.671 160.514C168.377 159.727 168.676 158.897 168.569 158.025C168.461 157.152 168.021 156.322 167.248 155.536L168.193 154.478C169.29 155.569 169.868 156.725 169.925 157.943C169.982 159.163 169.542 160.297 168.604 161.345C167.703 162.351 166.691 162.913 165.57 163.031C164.449 163.148 163.368 162.742 162.329 161.812C161.074 160.688 160.326 159.078 160.083 156.982C159.838 154.886 159.838 152.574 160.083 150.044L154.928 155.799L154.011 154.979L160.659 147.563L161.435 148.257Z" fill="white"/>
<path d="M125.407 182.095L124.94 180.955L134.975 176.862L135.442 178.003L125.407 182.095Z" fill="white"/>
</svg>
