<svg width="54" height="72" viewBox="0 0 54 72" fill="none" xmlns="http://www.w3.org/2000/svg">
<path d="M53.8041 0.235469C53.8037 0.18562 53.7876 0.137168 53.7581 0.0969785C53.7286 0.0567893 53.6872 0.0268998 53.6398 0.0115455C53.5923 -0.00380884 53.5413 -0.00384911 53.4938 0.011429C53.4464 0.0267071 53.4049 0.0565296 53.3754 0.0966714C51.6512 2.56418 45.723 3.18106 44.6435 3.26434H44.4553C40.5412 3.24892 35.7758 3.23349 30.9364 3.22424H27.2012C19.6321 3.22424 12.8958 3.24583 10.1847 3.31677C6.68079 3.40005 4.25029 5.13348 2.64641 7.01804C0.942245 8.95124 0.00135907 11.4394 0 14.0165V24.3246C0.00457238 24.3908 0.0304114 24.4538 0.0736741 24.5042C0.116937 24.5546 0.175312 24.5897 0.240116 24.6043C0.30492 24.6188 0.372693 24.6121 0.433352 24.585C0.49401 24.558 0.544314 24.512 0.576782 24.4541C1.62239 22.2087 4.00662 17.8658 7.08176 17.4371C7.18355 17.4371 7.28842 17.4186 7.3902 17.4186C9.46908 17.3199 18.4385 17.323 27.2012 17.3446C35.2515 17.3723 42.2315 17.4094 42.2315 17.4094C42.2315 17.4094 54.2267 17.7178 53.7794 3.32911L53.8041 0.235469Z" fill="white"/>
<path d="M53.8043 54.8048C53.806 54.7539 53.7911 54.7039 53.7619 54.6622C53.7326 54.6206 53.6906 54.5896 53.6422 54.5739C53.5938 54.5582 53.5416 54.5587 53.4935 54.5753C53.4454 54.592 53.404 54.6238 53.3755 54.666C51.6514 57.1335 45.7232 57.7504 44.6436 57.8337H44.4555C40.5414 57.8337 35.776 57.8059 30.9366 57.7967C21.924 57.7967 13.3402 57.7967 10.191 57.8799C6.68714 57.9663 4.25664 59.709 2.65275 61.5812C0.948099 63.5141 0.00713975 66.0025 0.00634766 68.5797V72.0003H7.10045C7.20223 71.9819 7.30545 71.9726 7.40888 71.9725C9.48776 71.8831 18.4572 71.8769 27.2199 71.8954C35.2702 71.9232 42.2502 71.9633 42.2502 71.9633C42.2502 71.9633 54.2454 72.2717 53.7981 57.8892L53.8043 54.8048Z" fill="white"/>
<path d="M21.5637 28.391C21.5637 28.391 8.31627 27.7741 2.44051 34.5752C-2.09971 39.8187 1.08646 48.6246 1.08646 48.6246C1.08646 48.6246 7.30151 53.1617 15.0433 47.4094C22.2515 42.0487 21.5637 28.391 21.5637 28.391Z" fill="white"/>
</svg>
