<svg width="122" height="36" viewBox="0 0 122 36" fill="none" xmlns="http://www.w3.org/2000/svg">
<g clip-path="url(#clip0_358_551)">
<path d="M103.565 0H18C8.05887 0 0 8.05887 0 18C0 27.9411 8.05887 36 18 36H103.565C113.506 36 121.565 27.9411 121.565 18C121.565 8.05887 113.506 0 103.565 0Z" fill="white"/>
<path d="M107.565 13.3936C107.565 16.155 105.327 18.3936 102.565 18.3936C99.804 18.3936 97.5654 16.155 97.5654 13.3936C97.5654 10.6321 99.804 8.39355 102.565 8.39355C105.327 8.39355 107.565 10.6321 107.565 13.3936Z" fill="black"/>
<path d="M106.565 13.3936C106.565 15.6027 104.774 17.3936 102.565 17.3936C100.356 17.3936 98.5654 15.6027 98.5654 13.3936C98.5654 11.1844 100.356 9.39355 102.565 9.39355C104.774 9.39355 106.565 11.1844 106.565 13.3936Z" fill="white"/>
<path d="M101.065 15.3936V11.3936H102.574C102.874 11.3936 103.122 11.4417 103.317 11.5381C103.513 11.6332 103.658 11.7614 103.754 11.9229C103.849 12.083 103.897 12.2608 103.897 12.4561C103.897 12.6279 103.864 12.7699 103.798 12.8818C103.733 12.9938 103.648 13.0824 103.541 13.1475C103.435 13.2126 103.321 13.2608 103.197 13.292V13.3311C103.329 13.3389 103.462 13.3818 103.596 13.46C103.729 13.5381 103.841 13.6501 103.931 13.7959C104.02 13.9417 104.065 14.1201 104.065 14.3311C104.065 14.5316 104.016 14.7119 103.918 14.8721C103.82 15.0322 103.664 15.1592 103.452 15.2529C103.24 15.3467 102.964 15.3936 102.624 15.3936H101.065ZM101.588 14.9639H102.624C102.966 14.9639 103.208 14.9027 103.351 14.7803C103.496 14.6566 103.568 14.5068 103.568 14.3311C103.568 14.1957 103.531 14.0707 103.456 13.9561C103.382 13.8402 103.276 13.7477 103.138 13.6787C103.001 13.6084 102.838 13.5733 102.65 13.5733H101.588V14.9639ZM101.588 13.1514H102.557C102.714 13.1514 102.856 13.1227 102.982 13.0654C103.11 13.0082 103.211 12.9274 103.286 12.8233C103.362 12.7191 103.4 12.5967 103.4 12.4561C103.4 12.2803 103.334 12.1312 103.202 12.0088C103.07 11.8851 102.86 11.8233 102.574 11.8233H101.588V13.1514Z" fill="black"/>
<path d="M20.6889 16.6781C20.6435 16.1972 20.4484 15.8236 20.1036 15.5574C19.7588 15.2911 19.2909 15.158 18.6999 15.158C18.2983 15.158 17.9592 15.2176 17.6826 15.3368C17.406 15.4521 17.1939 15.613 17.0461 15.8197C16.9021 16.0263 16.8302 16.2608 16.8302 16.5231C16.8226 16.7417 16.8661 16.9324 16.9609 17.0954C17.0594 17.2583 17.1939 17.3994 17.3644 17.5186C17.5349 17.6339 17.7319 17.7352 17.9554 17.8227C18.1789 17.9061 18.4176 17.9776 18.6715 18.0373L19.7171 18.2996C20.2248 18.4188 20.6908 18.5777 21.1152 18.7765C21.5395 18.9752 21.907 19.2196 22.2177 19.5097C22.5284 19.7998 22.7689 20.1416 22.9394 20.535C23.1137 20.9285 23.2027 21.3795 23.2065 21.8882C23.2027 22.6354 23.0209 23.2832 22.661 23.8316C22.3048 24.3761 21.7896 24.7993 21.1152 25.1013C20.4446 25.3994 19.6357 25.5484 18.6885 25.5484C17.7489 25.5484 16.9306 25.3974 16.2334 25.0954C15.5401 24.7933 14.9983 24.3462 14.6081 23.7541C14.2216 23.158 14.0189 22.4208 14 21.5425H16.3812C16.4077 21.9518 16.5195 22.2936 16.7165 22.5678C16.9173 22.8381 17.1844 23.0427 17.5178 23.1818C17.855 23.3169 18.2358 23.3845 18.6601 23.3845C19.0769 23.3845 19.4387 23.3209 19.7456 23.1937C20.0562 23.0666 20.2968 22.8897 20.4673 22.6632C20.6378 22.4367 20.723 22.1764 20.723 21.8823C20.723 21.608 20.6454 21.3775 20.49 21.1908C20.3385 21.004 20.115 20.845 19.8194 20.7139C19.5277 20.5827 19.1697 20.4635 18.7453 20.3562L17.478 20.0224C16.4968 19.772 15.722 19.3805 15.1537 18.848C14.5854 18.3154 14.3031 17.5981 14.3069 16.696C14.3031 15.9568 14.4906 15.311 14.8695 14.7586C15.2522 14.2062 15.7769 13.775 16.4437 13.465C17.1105 13.155 17.8683 13 18.7169 13C19.5807 13 20.3347 13.155 20.9788 13.465C21.6266 13.775 22.1305 14.2062 22.4905 14.7586C22.8504 15.311 23.036 15.9508 23.0474 16.6781H20.6889Z" fill="black"/>
<path d="M27.3225 13.1669V25.3756H24.8617V13.1669H27.3225Z" fill="black"/>
<path d="M29.3471 25.3756V13.1669H37.1897V15.2951H31.8078V18.2042H36.7862V20.3323H31.8078V23.2474H37.2124V25.3756H29.3471Z" fill="black"/>
<path d="M43.2719 25.3756H39.146V13.1669H43.306C44.4767 13.1669 45.4845 13.4113 46.3294 13.9001C47.1743 14.385 47.8241 15.0825 48.2787 15.9925C48.7371 16.9026 48.9664 17.9916 48.9664 19.2593C48.9664 20.531 48.7371 21.6239 48.2787 22.538C47.8241 23.4521 47.1705 24.1535 46.3181 24.6423C45.4694 25.1311 44.454 25.3756 43.2719 25.3756ZM41.6068 23.1639H43.1696C43.8971 23.1639 44.5089 23.0288 45.0053 22.7586C45.5054 22.4844 45.8805 22.0611 46.1305 21.4888C46.3844 20.9126 46.5113 20.1694 46.5113 19.2593C46.5113 18.3572 46.3844 17.62 46.1305 17.0477C45.8805 16.4754 45.5073 16.0541 45.011 15.7839C44.5146 15.5137 43.9028 15.3785 43.1753 15.3785H41.6068V23.1639Z" fill="black"/>
<path d="M54.5286 29C53.8808 29 53.3238 28.9126 52.8578 28.7377C52.3918 28.5668 52.0035 28.3403 51.6928 28.0581C51.3859 27.7799 51.1415 27.4819 50.9597 27.1639L52.0281 26.377C52.1493 26.544 52.3028 26.7347 52.4884 26.9493C52.6741 27.1679 52.9279 27.3567 53.2499 27.5156C53.5758 27.6786 54.002 27.7601 54.5286 27.7601C55.2333 27.7601 55.8149 27.5812 56.2733 27.2235C56.7318 26.8659 56.961 26.3055 56.961 25.5425V23.6826H56.8473C56.7488 23.8495 56.6086 24.0561 56.4268 24.3025C56.2487 24.545 55.9911 24.7616 55.6539 24.9523C55.3205 25.1391 54.8696 25.2325 54.3013 25.2325C53.5966 25.2325 52.9639 25.0576 52.4032 24.7079C51.8462 24.3582 51.4048 23.8495 51.079 23.1818C50.757 22.5142 50.596 21.7034 50.596 20.7496C50.596 19.8117 50.7532 18.995 51.0677 18.2996C51.3821 17.6001 51.8197 17.0596 52.3804 16.6781C52.9412 16.2926 53.589 16.0999 54.324 16.0999C54.8923 16.0999 55.3432 16.1992 55.6766 16.3979C56.0138 16.5926 56.2714 16.8152 56.4495 17.0656C56.6314 17.312 56.7715 17.5147 56.87 17.6736H57.0064V16.2191H58.3022V25.6379C58.3022 26.4247 58.1317 27.0646 57.7907 27.5574C57.4535 28.0541 56.9989 28.4178 56.4268 28.6483C55.8585 28.8828 55.2257 29 54.5286 29ZM54.4832 23.9687C55.0212 23.9687 55.4758 23.8395 55.8471 23.5812C56.2184 23.3229 56.5006 22.9513 56.6939 22.4665C56.8871 21.9816 56.9837 21.4014 56.9837 20.7258C56.9837 20.0661 56.889 19.4839 56.6996 18.9791C56.5101 18.4744 56.2298 18.079 55.8585 17.7928C55.4872 17.5067 55.0287 17.3636 54.4832 17.3636C53.9149 17.3636 53.4413 17.5147 53.0624 17.8167C52.6873 18.1187 52.4051 18.5241 52.2156 19.0328C52.03 19.5415 51.9372 20.1058 51.9372 20.7258C51.9372 21.3616 52.0319 21.924 52.2213 22.4128C52.4145 22.8977 52.6987 23.2792 53.0738 23.5574C53.4526 23.8316 53.9224 23.9687 54.4832 23.9687Z" fill="black"/>
<path d="M60.7572 25.3756V16.2191H62.053V17.6021H62.1439C62.303 17.149 62.591 16.7814 63.0077 16.4993C63.4245 16.2171 63.8943 16.076 64.4171 16.076C64.5156 16.076 64.6388 16.078 64.7865 16.082C64.9343 16.0859 65.046 16.0919 65.1218 16.0999V17.5306C65.0764 17.5186 64.9722 17.5007 64.8093 17.4769C64.6501 17.4491 64.4815 17.4352 64.3035 17.4352C63.8791 17.4352 63.5003 17.5286 63.1669 17.7154C62.8372 17.8982 62.5758 18.1525 62.3826 18.4784C62.1932 18.8003 62.0984 19.1679 62.0984 19.5812V25.3756H60.7572Z" fill="black"/>
<path d="M69.9922 25.5663C69.2041 25.5663 68.5127 25.3696 67.9179 24.9762C67.3268 24.5827 66.8646 24.0323 66.5312 23.3249C66.2016 22.6175 66.0368 21.7909 66.0368 20.845C66.0368 19.8912 66.2016 19.0586 66.5312 18.3472C66.8646 17.6359 67.3268 17.0835 67.9179 16.69C68.5127 16.2966 69.2041 16.0999 69.9922 16.0999C70.7802 16.0999 71.4698 16.2966 72.0608 16.69C72.6556 17.0835 73.1179 17.6359 73.4475 18.3472C73.7809 19.0586 73.9476 19.8912 73.9476 20.845C73.9476 21.7909 73.7809 22.6175 73.4475 23.3249C73.1179 24.0323 72.6556 24.5827 72.0608 24.9762C71.4698 25.3696 70.7802 25.5663 69.9922 25.5663ZM69.9922 24.3025C70.5908 24.3025 71.0833 24.1416 71.4698 23.8197C71.8562 23.4978 72.1423 23.0745 72.3279 22.5499C72.5136 22.0253 72.6064 21.457 72.6064 20.845C72.6064 20.233 72.5136 19.6627 72.3279 19.1341C72.1423 18.6056 71.8562 18.1783 71.4698 17.8525C71.0833 17.5266 70.5908 17.3636 69.9922 17.3636C69.3936 17.3636 68.901 17.5266 68.5146 17.8525C68.1282 18.1783 67.8421 18.6056 67.6565 19.1341C67.4708 19.6627 67.378 20.233 67.378 20.845C67.378 21.457 67.4708 22.0253 67.6565 22.5499C67.8421 23.0745 68.1282 23.4978 68.5146 23.8197C68.901 24.1416 69.3936 24.3025 69.9922 24.3025Z" fill="black"/>
<path d="M81.4961 21.6319V16.2191H82.8373V25.3756H81.4961V23.8256H81.4052C81.2006 24.2906 80.8823 24.686 80.4504 25.0119C80.0185 25.3338 79.4729 25.4948 78.8137 25.4948C78.2681 25.4948 77.7832 25.3696 77.3588 25.1192C76.9345 24.8649 76.6011 24.4834 76.3586 23.9747C76.1161 23.462 75.9949 22.8162 75.9949 22.0373V16.2191H77.3361V21.9419C77.3361 22.6095 77.5142 23.1421 77.8703 23.5395C78.2302 23.9369 78.6887 24.1356 79.2456 24.1356C79.579 24.1356 79.9181 24.0462 80.2629 23.8674C80.6114 23.6885 80.9032 23.4143 81.1381 23.0447C81.3767 22.6751 81.4961 22.2042 81.4961 21.6319Z" fill="black"/>
<path d="M85.2938 28.8092V16.2191H86.5895V17.6736H86.7486C86.8472 17.5147 86.9835 17.312 87.1578 17.0656C87.3359 16.8152 87.5897 16.5926 87.9194 16.3979C88.2528 16.1992 88.7036 16.0999 89.2719 16.0999C90.0069 16.0999 90.6548 16.2926 91.2155 16.6781C91.7762 17.0636 92.2138 17.61 92.5283 18.3174C92.8428 19.0248 93 19.8594 93 20.8212C93 21.7909 92.8428 22.6314 92.5283 23.3428C92.2138 24.0502 91.7781 24.5986 91.2212 24.9881C90.6643 25.3736 90.0221 25.5663 89.2947 25.5663C88.7339 25.5663 88.285 25.469 87.9478 25.2742C87.6106 25.0755 87.3511 24.851 87.1692 24.6006C86.9873 24.3463 86.8472 24.1356 86.7486 23.9687H86.635V28.8092H85.2938ZM86.6123 20.7973C86.6123 21.4888 86.7089 22.0989 86.9021 22.6274C87.0953 23.152 87.3776 23.5633 87.7489 23.8614C88.1202 24.1555 88.5748 24.3025 89.1128 24.3025C89.6735 24.3025 90.1414 24.1475 90.5165 23.8376C90.8954 23.5236 91.1795 23.1023 91.369 22.5738C91.5622 22.0412 91.6588 21.4491 91.6588 20.7973C91.6588 20.1535 91.5641 19.5733 91.3746 19.0566C91.189 18.536 90.9067 18.1247 90.5279 17.8227C90.1528 17.5166 89.6811 17.3636 89.1128 17.3636C88.5672 17.3636 88.1088 17.5087 87.7375 17.7988C87.3662 18.0849 87.0858 18.4863 86.8964 19.003C86.707 19.5156 86.6123 20.1138 86.6123 20.7973Z" fill="black"/>
</g>
<defs>
<clipPath id="clip0_358_551">
<rect width="122" height="36" fill="white"/>
</clipPath>
</defs>
</svg>
