<svg width="358" height="358" viewBox="0 0 358 358" fill="none" xmlns="http://www.w3.org/2000/svg">
<path d="M12.6253 189.349H12.6184C9.26641 189.029 7.1652 188.12 5.94702 186.921C4.74588 185.739 4.33833 184.211 4.51258 182.481C4.6883 180.737 5.45661 178.812 6.58209 176.924C7.70462 175.041 9.16487 173.224 10.6878 171.701L173.311 9.07737C174.83 7.55848 176.557 6.24319 178.302 5.34437C180.051 4.4432 181.784 3.97766 183.329 4.10734C184.851 4.23517 186.229 4.94269 187.308 6.47414C188.4 8.02448 189.202 10.4436 189.477 14.0044L189.478 14.0133L196.031 82.7203C195.055 90.671 193.948 96.8037 187.894 102.857L101.319 189.432C95.2486 195.503 88.197 197.189 81.873 196.927L12.6253 189.349Z" stroke="url(#paint0_linear_361_575)"/>
<path d="M28.0607 204.837H28.0537C25.065 204.885 23.3168 204.273 22.3912 203.366C21.4908 202.483 21.2599 201.208 21.5922 199.622C21.9253 198.032 22.8124 196.215 24.0196 194.395C25.2227 192.581 26.7238 190.794 28.252 189.266L190.875 26.6417C192.401 25.1167 194.094 23.7538 195.763 22.7653C197.439 21.7721 199.05 21.181 200.419 21.1435C201.754 21.1069 202.861 21.5924 203.638 22.7991C204.44 24.0441 204.923 26.1084 204.814 29.2872V29.2962L203.841 90.4727C202.17 97.7162 200.558 103.367 194.481 109.444L107.906 196.019C101.809 202.116 95.2765 204.336 89.6237 204.733L28.0607 204.837Z" stroke="url(#paint1_linear_361_575)"/>
<path d="M43.4807 220.333L43.4741 220.334C42.1715 220.541 41.1599 220.565 40.3935 220.455C39.6278 220.345 39.1383 220.105 38.8351 219.81C38.2529 219.243 38.1593 218.243 38.6637 216.769C39.157 215.327 40.1667 213.616 41.4559 211.866C42.7405 210.121 44.2829 208.363 45.8163 206.83L208.44 44.2065C209.971 42.6754 211.631 41.2644 213.224 40.1846C214.827 39.098 216.32 38.3756 217.523 38.1715C218.12 38.0703 218.615 38.1019 219.009 38.251C219.393 38.3961 219.717 38.6656 219.963 39.1126C220.477 40.043 220.655 41.747 220.16 44.5562L220.159 44.5647L211.66 98.2151C209.294 104.76 207.17 109.928 201.068 116.031L114.493 202.606C108.371 208.728 102.356 211.493 97.3605 212.547L43.4807 220.333Z" stroke="url(#paint2_linear_361_575)"/>
<path d="M58.8845 235.845L58.8792 235.847C57.7543 236.238 56.9109 236.424 56.3026 236.459C55.6816 236.495 55.399 236.369 55.278 236.253C55.1719 236.151 55.084 235.952 55.1419 235.534C55.1997 235.117 55.3936 234.574 55.7246 233.922C57.0528 231.304 60.289 227.486 63.3809 224.394L226.005 61.7708C227.542 60.2339 229.168 58.7741 230.685 57.6016C232.211 56.4216 233.592 55.5596 234.643 55.1839C235.172 54.9947 235.559 54.9506 235.817 55.0003C236.035 55.0422 236.181 55.1512 236.279 55.3971C236.391 55.681 236.437 56.1596 236.325 56.9104C236.215 57.6511 235.959 58.6068 235.521 59.8105L235.519 59.8171L219.493 105.948C216.427 111.802 213.786 116.487 207.655 122.617L121.079 209.193C114.933 215.339 109.436 218.66 105.084 220.376L58.8845 235.845Z" stroke="url(#paint3_linear_361_575)"/>
<path d="M252.754 71.7268C252.754 71.7269 252.753 71.7269 252.751 71.7266M74.2771 251.382L74.2743 251.383C73.3244 251.963 72.6346 252.319 72.1618 252.501C72.0374 252.549 71.9352 252.581 71.8528 252.603C71.8673 252.565 71.8851 252.522 71.9066 252.474C72.0614 252.131 72.3542 251.658 72.7732 251.075C74.4457 248.749 77.8508 245.054 80.9458 241.959L243.569 79.3354C246.669 76.2354 249.936 73.3066 251.772 72.1733C252.128 71.9537 252.392 71.8263 252.569 71.7669C252.56 71.8141 252.546 71.8705 252.527 71.937C252.473 72.1227 252.382 72.3602 252.246 72.656C251.974 73.2476 251.538 74.0373 250.905 75.0558L250.903 75.0593L227.344 113.675C223.572 118.845 220.403 123.043 214.242 129.204L127.666 215.779C121.496 221.95 116.516 225.836 112.797 228.227L74.2771 251.382ZM71.6196 252.637C71.6196 252.637 71.6212 252.637 71.6241 252.638C71.6209 252.638 71.6195 252.637 71.6196 252.637Z" stroke="url(#paint4_linear_361_575)"/>
<path d="M167.976 344.7L167.977 344.707C168.297 348.059 169.206 350.16 170.405 351.378C171.586 352.579 173.114 352.987 174.844 352.813C176.589 352.637 178.514 351.869 180.402 350.743C182.285 349.621 184.102 348.16 185.625 346.638L348.248 184.014C349.767 182.495 351.082 180.768 351.981 179.023C352.882 177.274 353.348 175.541 353.218 173.996C353.09 172.474 352.383 171.096 350.851 170.017C349.301 168.925 346.882 168.123 343.321 167.848L343.312 167.847L274.605 161.294C266.655 162.27 260.522 163.377 254.468 169.431L167.893 256.006C161.822 262.077 160.137 269.128 160.398 275.452L167.976 344.7Z" stroke="url(#paint5_linear_361_575)"/>
<path d="M152.488 329.264V329.271C152.441 332.26 153.053 334.008 153.96 334.934C154.842 335.834 156.117 336.065 157.703 335.733C159.294 335.4 161.11 334.513 162.93 333.305C164.744 332.102 166.531 330.601 168.06 329.073L330.683 166.45C332.208 164.924 333.571 163.231 334.56 161.562C335.553 159.886 336.144 158.275 336.182 156.906C336.218 155.571 335.733 154.464 334.526 153.687C333.281 152.885 331.217 152.402 328.038 152.511H328.029L266.852 153.484C259.609 155.155 253.958 156.767 247.881 162.844L161.306 249.419C155.21 255.516 152.989 262.049 152.593 267.701L152.488 329.264Z" stroke="url(#paint6_linear_361_575)"/>
<path d="M136.992 313.845L136.991 313.851C136.785 315.154 136.76 316.165 136.871 316.932C136.981 317.698 137.221 318.187 137.516 318.49C138.082 319.072 139.082 319.166 140.556 318.662C141.998 318.168 143.709 317.159 145.46 315.869C147.204 314.585 148.962 313.042 150.495 311.509L313.119 148.886C314.65 147.354 316.061 145.694 317.141 144.102C318.228 142.499 318.95 141.005 319.154 139.802C319.255 139.206 319.224 138.711 319.075 138.317C318.929 137.933 318.66 137.609 318.213 137.362C317.283 136.849 315.579 136.671 312.769 137.165L312.761 137.167L259.11 145.665C252.566 148.032 247.397 150.155 241.295 156.258L154.72 242.833C148.598 248.955 145.832 254.97 144.779 259.965L136.992 313.845Z" stroke="url(#paint7_linear_361_575)"/>
<path d="M121.481 298.44L121.479 298.446C121.088 299.571 120.901 300.414 120.866 301.022C120.83 301.643 120.957 301.926 121.073 302.047C121.175 302.153 121.374 302.241 121.792 302.183C122.209 302.125 122.752 301.931 123.404 301.6C126.022 300.272 129.839 297.036 132.931 293.944L295.555 131.321C297.092 129.784 298.552 128.157 299.724 126.641C300.904 125.114 301.766 123.733 302.142 122.682C302.331 122.153 302.375 121.766 302.325 121.508C302.283 121.29 302.175 121.144 301.929 121.047C301.645 120.934 301.166 120.888 300.415 121C299.675 121.11 298.719 121.367 297.515 121.804L297.509 121.806L251.378 137.832C245.524 140.898 240.839 143.54 234.708 149.671L148.133 236.246C141.987 242.392 138.666 247.889 136.95 252.242L121.481 298.44Z" stroke="url(#paint8_linear_361_575)"/>
<path d="M105.945 283.048L105.943 283.051C105.364 284.001 105.007 284.691 104.825 285.164C104.778 285.288 104.745 285.39 104.723 285.473C104.762 285.458 104.804 285.44 104.852 285.419C105.195 285.264 105.668 284.971 106.251 284.552C108.577 282.88 112.272 279.475 115.367 276.38L277.991 113.756C281.091 110.656 284.02 107.389 285.153 105.553C285.373 105.198 285.5 104.934 285.559 104.756C285.512 104.766 285.456 104.779 285.389 104.798C285.204 104.853 284.966 104.943 284.67 105.079C284.079 105.351 283.289 105.787 282.27 106.42L282.267 106.422L243.651 129.981C238.481 133.753 234.284 136.922 228.122 143.084L141.547 229.659C135.376 235.829 131.49 240.809 129.099 244.528L105.945 283.048ZM104.689 285.706C104.689 285.706 104.689 285.704 104.688 285.701C104.688 285.705 104.689 285.706 104.689 285.706ZM285.599 104.571C285.599 104.571 285.599 104.573 285.6 104.575C285.6 104.573 285.599 104.571 285.599 104.571Z" stroke="url(#paint9_linear_361_575)"/>
<path d="M87.7432 268.875L268.875 87.7432" stroke="black"/>
<path d="M84.3889 101.627L26.7132 118.165C18.219 120.601 13.3075 129.461 15.7432 137.955C18.1789 146.45 27.0393 151.361 35.5336 148.925L93.2093 132.387C101.704 129.951 106.615 121.091 104.179 112.597C101.744 104.103 92.8831 99.1911 84.3889 101.627Z" fill="#F84438"/>
<path d="M32.994 138.21L30.1875 128.423L33.4946 127.474C34.2592 127.255 34.9243 127.206 35.4899 127.326C36.0545 127.444 36.5196 127.695 36.8851 128.079C37.2505 128.464 37.516 128.945 37.6813 129.522C37.8467 130.098 37.8754 130.644 37.7676 131.157C37.6597 131.671 37.3986 132.125 36.9842 132.52C36.5689 132.911 35.9821 133.216 35.2239 133.433L32.5476 134.2L32.2407 133.13L34.8787 132.373C35.4012 132.224 35.7998 132.027 36.0746 131.782C36.3525 131.537 36.523 131.254 36.5859 130.932C36.6512 130.607 36.6276 130.248 36.5152 129.856C36.4029 129.464 36.2314 129.143 36.0008 128.892C35.7702 128.641 35.4711 128.481 35.1037 128.414C34.7353 128.344 34.2867 128.385 33.7578 128.537L31.6742 129.134L34.1792 137.87L32.994 138.21ZM36.3402 132.492L40.0096 136.198L38.6332 136.593L35.0021 132.876L36.3402 132.492ZM44.4919 135.078C43.7846 135.281 43.1297 135.3 42.5272 135.135C41.927 134.966 41.4075 134.639 40.9686 134.154C40.532 133.666 40.2059 133.046 39.9903 132.294C39.7747 131.542 39.7217 130.84 39.8312 130.188C39.943 129.532 40.1997 128.972 40.6013 128.509C41.0051 128.041 41.5384 127.712 42.2011 127.522C42.5834 127.413 42.9792 127.368 43.3885 127.389C43.7978 127.409 44.1965 127.519 44.5846 127.718C44.9718 127.914 45.3233 128.22 45.6392 128.636C45.9551 129.053 46.2112 129.603 46.4076 130.288L46.5447 130.766L40.8863 132.389L40.6068 131.414L45.1182 130.12C44.9994 129.706 44.8106 129.36 44.5517 129.083C44.2961 128.804 43.99 128.614 43.6334 128.513C43.28 128.411 42.8994 128.419 42.4916 128.535C42.0424 128.664 41.6856 128.887 41.4214 129.204C41.1595 129.517 40.9916 129.876 40.9178 130.28C40.844 130.684 40.8651 131.088 40.9811 131.492L41.1675 132.142C41.3264 132.697 41.5568 133.139 41.8585 133.47C42.1624 133.797 42.5152 134.011 42.9169 134.113C43.3176 134.212 43.7458 134.196 44.2014 134.065C44.4977 133.98 44.7534 133.862 44.9686 133.711C45.1861 133.555 45.3582 133.368 45.485 133.149C45.6109 132.927 45.6851 132.674 45.7076 132.392L46.8849 132.386C46.8762 132.788 46.7767 133.168 46.5862 133.526C46.3949 133.881 46.1225 134.194 45.769 134.464C45.4146 134.731 44.9889 134.936 44.4919 135.078ZM52.7692 126.375L51.8383 126.952C51.7262 126.801 51.5851 126.664 51.4152 126.54C51.2475 126.413 51.0435 126.326 50.8031 126.281C50.5627 126.237 50.2784 126.261 49.9502 126.355C49.501 126.484 49.1563 126.695 48.9162 126.988C48.6784 127.277 48.6047 127.579 48.6951 127.894C48.7755 128.175 48.941 128.367 49.1915 128.471C49.442 128.575 49.7994 128.619 50.2638 128.603L51.4301 128.558C52.1321 128.529 52.691 128.633 53.1069 128.869C53.5219 129.102 53.8029 129.474 53.95 129.987C54.0706 130.408 54.0573 130.819 53.9102 131.219C53.7663 131.619 53.5066 131.976 53.1314 132.291C52.7561 132.605 52.2833 132.844 51.713 133.008C50.9643 133.223 50.298 133.238 49.7142 133.053C49.1303 132.869 48.6836 132.484 48.3739 131.897L49.3676 131.322C49.5829 131.688 49.8606 131.929 50.2008 132.045C50.5442 132.16 50.9468 132.152 51.4088 132.019C51.9345 131.869 52.3199 131.637 52.565 131.326C52.8124 131.01 52.8908 130.694 52.8004 130.379C52.7273 130.124 52.5769 129.936 52.3491 129.815C52.1205 129.691 51.809 129.639 51.4148 129.659L50.1091 129.723C49.3912 129.757 48.8266 129.651 48.4152 129.407C48.0062 129.159 47.729 128.782 47.5837 128.275C47.465 127.861 47.4762 127.461 47.6174 127.076C47.7618 126.69 48.0103 126.348 48.3629 126.05C48.7186 125.752 49.1545 125.528 49.6707 125.38C50.3971 125.172 51.013 125.168 51.5186 125.368C52.0273 125.567 52.4442 125.902 52.7692 126.375ZM59.3558 130.816C58.6485 131.019 57.9936 131.038 57.3911 130.873C56.7909 130.704 56.2714 130.377 55.8325 129.892C55.3959 129.404 55.0698 128.784 54.8542 128.032C54.6386 127.28 54.5856 126.578 54.6951 125.926C54.8069 125.27 55.0636 124.71 55.4652 124.246C55.869 123.779 56.4023 123.45 57.065 123.26C57.4473 123.151 57.8431 123.106 58.2524 123.127C58.6617 123.147 59.0604 123.257 59.4485 123.456C59.8356 123.652 60.1872 123.958 60.5031 124.374C60.819 124.79 61.0751 125.341 61.2715 126.026L61.4086 126.504L55.7502 128.126L55.4707 127.151L59.9821 125.858C59.8633 125.444 59.6745 125.098 59.4156 124.82C59.16 124.542 58.8538 124.352 58.4973 124.251C58.1439 124.149 57.7633 124.156 57.3555 124.273C56.9063 124.402 56.5495 124.625 56.2853 124.942C56.0234 125.255 55.8555 125.614 55.7817 126.018C55.7079 126.421 55.729 126.826 55.845 127.23L56.0314 127.88C56.1903 128.435 56.4206 128.877 56.7223 129.208C57.0263 129.534 57.3791 129.749 57.7808 129.851C58.1815 129.95 58.6097 129.934 59.0653 129.803C59.3616 129.718 59.6173 129.6 59.8325 129.449C60.05 129.293 60.2221 129.106 60.3489 128.887C60.4748 128.665 60.549 128.412 60.5715 128.13L61.7488 128.123C61.7401 128.526 61.6405 128.906 61.4501 129.264C61.2588 129.619 60.9864 129.932 60.6329 130.202C60.2785 130.469 59.8528 130.674 59.3558 130.816ZM66.2765 128.853C65.8113 128.986 65.3641 129.019 64.9347 128.953C64.5044 128.883 64.1298 128.713 63.8108 128.442C63.491 128.169 63.2625 127.793 63.1255 127.315C63.0049 126.894 62.99 126.53 63.0807 126.221C63.1706 125.909 63.3326 125.638 63.5669 125.409C63.8011 125.18 64.075 124.981 64.3885 124.812C64.7043 124.638 65.0262 124.48 65.3544 124.338C65.784 124.153 66.1332 124.006 66.4022 123.898C66.6734 123.786 66.8623 123.675 66.9687 123.565C67.0783 123.454 67.1071 123.308 67.055 123.126L67.044 123.088C66.9088 122.617 66.6747 122.287 66.3417 122.1C66.012 121.912 65.5874 121.892 65.0681 122.041C64.5296 122.195 64.1413 122.434 63.9031 122.758C63.6648 123.081 63.5219 123.395 63.4744 123.698L62.2943 123.623C62.3575 123.122 62.5128 122.701 62.7602 122.361C63.0098 122.018 63.31 121.742 63.6608 121.534C64.0139 121.323 64.3752 121.164 64.7448 121.058C64.9806 120.99 65.2596 120.941 65.5819 120.911C65.9065 120.877 66.2368 120.904 66.5729 120.994C66.9121 121.083 67.2271 121.274 67.5179 121.566C67.8086 121.859 68.0376 122.296 68.2048 122.879L69.5916 127.716L68.4637 128.039L68.1787 127.045L68.1213 127.062C68.0905 127.243 68.012 127.45 67.8856 127.683C67.7593 127.915 67.5663 128.138 67.3065 128.35C67.0467 128.563 66.7034 128.73 66.2765 128.853ZM66.158 127.79C66.604 127.662 66.9549 127.467 67.2105 127.204C67.4693 126.94 67.637 126.647 67.7136 126.325C67.7934 126.002 67.7895 125.688 67.7018 125.382L67.4058 124.35C67.3745 124.421 67.2844 124.504 67.1356 124.598C66.9891 124.688 66.8157 124.781 66.6155 124.876C66.4175 124.968 66.2235 125.054 66.0332 125.136C65.8453 125.214 65.6931 125.279 65.5766 125.329C65.2944 125.452 65.0382 125.592 64.808 125.752C64.5801 125.907 64.4123 126.091 64.3046 126.304C64.1991 126.514 64.1875 126.762 64.2698 127.049C64.3821 127.441 64.6121 127.695 64.9595 127.813C65.3093 127.927 65.7088 127.919 66.158 127.79ZM71.6501 127.125L69.5452 119.785L70.6349 119.472L70.9528 120.581L71.0292 120.559C71.0589 120.158 71.2165 119.794 71.5021 119.467C71.7877 119.14 72.1504 118.914 72.59 118.788C72.6729 118.764 72.7769 118.736 72.902 118.703C73.0272 118.671 73.1226 118.649 73.1881 118.637L73.517 119.784C73.476 119.785 73.3843 119.796 73.2418 119.816C73.1016 119.832 72.9566 119.862 72.8069 119.905C72.4501 120.007 72.1529 120.173 71.9155 120.403C71.6803 120.629 71.519 120.896 71.4314 121.204C71.3461 121.508 71.351 121.826 71.446 122.157L72.778 126.802L71.6501 127.125ZM79.4598 125.052C78.7717 125.249 78.1325 125.256 77.5423 125.074C76.9521 124.891 76.4414 124.553 76.0102 124.06C75.5791 123.566 75.2585 122.953 75.0483 122.22C74.8346 121.475 74.7829 120.778 74.8934 120.129C75.0061 119.476 75.2633 118.918 75.6648 118.454C76.0687 117.987 76.6019 117.658 77.2646 117.468C77.7807 117.32 78.2733 117.282 78.7423 117.355C79.2113 117.427 79.6273 117.597 79.9904 117.866C80.3535 118.134 80.6327 118.488 80.828 118.929L79.7002 119.252C79.5182 118.942 79.2421 118.701 78.8718 118.528C78.5038 118.35 78.0712 118.333 77.5742 118.476C77.1346 118.602 76.7819 118.827 76.5164 119.151C76.2531 119.472 76.0884 119.865 76.0224 120.333C75.9586 120.796 76.0063 121.304 76.1652 121.859C76.3278 122.426 76.5586 122.894 76.8576 123.263C77.1598 123.632 77.5084 123.885 77.9032 124.024C78.3012 124.161 78.7233 124.166 79.1693 124.038C79.4624 123.954 79.7139 123.827 79.9236 123.657C80.1333 123.486 80.2936 123.282 80.4044 123.043C80.5153 122.804 80.5674 122.541 80.5607 122.253L81.6886 121.93C81.7491 122.382 81.7033 122.817 81.5512 123.236C81.4014 123.652 81.1502 124.02 80.7976 124.342C80.4474 124.66 80.0015 124.896 79.4598 125.052ZM83.8129 118.859L85.0791 123.275L83.9513 123.598L81.1448 113.811L82.2726 113.487L83.3031 117.081L83.3987 117.054C83.462 116.625 83.6338 116.25 83.9139 115.929C84.1963 115.603 84.6259 115.357 85.2025 115.192C85.7027 115.048 86.1696 115.023 86.6031 115.116C87.0357 115.206 87.4144 115.426 87.7394 115.778C88.0666 116.126 88.3206 116.615 88.5015 117.246L89.839 121.91L88.7111 122.233L87.3956 117.645C87.2284 117.062 86.9478 116.655 86.5538 116.423C86.162 116.187 85.7001 116.146 85.1681 116.298C84.7985 116.404 84.4895 116.577 84.2412 116.817C83.996 117.057 83.8319 117.35 83.749 117.698C83.6692 118.045 83.6905 118.432 83.8129 118.859Z" fill="white"/>
<path d="M294.843 57.3793L191.413 46.5084C182.9 45.6136 175.273 51.7898 174.378 60.3033C173.483 68.8168 179.659 76.4437 188.173 77.3386L291.603 88.2095C300.117 89.1043 307.743 82.9281 308.638 74.4146C309.533 65.9011 303.357 58.2741 294.843 57.3793Z" fill="white"/>
<path d="M294.843 57.3793L191.413 46.5084C182.9 45.6136 175.273 51.7898 174.378 60.3033C173.483 68.8168 179.659 76.4437 188.173 77.3386L291.603 88.2095C300.117 89.1043 307.743 82.9281 308.638 74.4146C309.533 65.9011 303.357 58.2741 294.843 57.3793Z" stroke="black"/>
<path d="M259.599 208.892L158.983 217.695C150.455 218.441 144.147 225.959 144.893 234.487C145.639 243.015 153.157 249.323 161.685 248.577L262.3 239.774C270.828 239.028 277.137 231.51 276.391 222.982C275.645 214.455 268.126 208.146 259.599 208.892Z" fill="black"/>
<path d="M259.599 208.892L158.983 217.695C150.455 218.441 144.147 225.959 144.893 234.487C145.639 243.015 153.157 249.323 161.685 248.577L262.3 239.774C270.828 239.028 277.137 231.51 276.391 222.982C275.645 214.455 268.126 208.146 259.599 208.892Z" stroke="white"/>
<path d="M161.688 227.816L162.575 237.959L161.347 238.067L160.459 227.924L161.688 227.816ZM164.879 237.758L164.214 230.151L165.343 230.052L165.447 231.24L165.546 231.232C165.669 230.812 165.897 230.474 166.231 230.219C166.564 229.96 166.979 229.809 167.474 229.766C167.976 229.722 168.403 229.799 168.757 229.998C169.113 230.193 169.403 230.485 169.627 230.875L169.706 230.868C169.867 230.458 170.132 230.12 170.501 229.855C170.87 229.587 171.327 229.428 171.872 229.381C172.552 229.321 173.127 229.486 173.597 229.874C174.066 230.258 174.34 230.898 174.418 231.793L174.864 236.884L173.695 236.987L173.25 231.895C173.2 231.334 173.012 230.946 172.684 230.732C172.356 230.518 171.983 230.429 171.567 230.465C171.033 230.512 170.632 230.71 170.367 231.06C170.101 231.406 169.99 231.824 170.033 232.316L170.466 237.269L169.277 237.373L168.821 232.163C168.784 231.73 168.613 231.394 168.309 231.155C168.005 230.912 167.632 230.81 167.189 230.848C166.886 230.875 166.609 230.981 166.359 231.166C166.112 231.35 165.92 231.593 165.784 231.895C165.65 232.193 165.6 232.528 165.632 232.901L166.048 237.656L164.879 237.758ZM177.251 239.55L176.335 229.09L177.465 228.991L177.57 230.2L177.709 230.188C177.783 230.048 177.887 229.869 178.021 229.651C178.158 229.43 178.363 229.225 178.637 229.038C178.913 228.848 179.298 228.731 179.794 228.688C180.434 228.632 181.013 228.742 181.529 229.02C182.046 229.297 182.467 229.718 182.793 230.282C183.118 230.846 183.316 231.527 183.386 232.326C183.456 233.132 183.38 233.842 183.158 234.457C182.935 235.069 182.595 235.557 182.138 235.924C181.681 236.286 181.135 236.495 180.501 236.551C180.013 236.594 179.614 236.547 179.306 236.411C178.998 236.271 178.756 236.105 178.579 235.911C178.402 235.713 178.265 235.549 178.167 235.418L178.068 235.426L178.419 239.448L177.251 239.55ZM177.817 232.793C177.867 233.368 177.996 233.867 178.203 234.292C178.409 234.713 178.685 235.033 179.03 235.252C179.375 235.468 179.782 235.556 180.251 235.515C180.74 235.472 181.136 235.308 181.441 235.021C181.748 234.732 181.965 234.36 182.092 233.906C182.221 233.449 182.263 232.95 182.215 232.408C182.168 231.874 182.044 231.399 181.841 230.984C181.641 230.566 181.366 230.245 181.013 230.023C180.664 229.798 180.242 229.706 179.747 229.75C179.271 229.791 178.882 229.947 178.58 230.216C178.277 230.482 178.062 230.837 177.934 231.281C177.807 231.721 177.768 232.225 177.817 232.793ZM185.781 225.709L186.669 235.852L185.5 235.954L184.612 225.811L185.781 225.709ZM192.013 235.544C191.28 235.608 190.633 235.501 190.073 235.224C189.517 234.944 189.069 234.524 188.731 233.964C188.395 233.402 188.193 232.73 188.125 231.951C188.057 231.172 188.139 230.473 188.371 229.854C188.606 229.231 188.965 228.73 189.447 228.352C189.933 227.97 190.519 227.749 191.206 227.689C191.602 227.655 191.999 227.686 192.397 227.785C192.795 227.883 193.165 228.067 193.508 228.336C193.851 228.602 194.138 228.97 194.368 229.439C194.599 229.908 194.745 230.497 194.807 231.207L194.851 231.702L188.987 232.215L188.898 231.205L193.574 230.796C193.536 230.367 193.417 229.991 193.216 229.669C193.018 229.347 192.753 229.103 192.423 228.935C192.095 228.768 191.72 228.702 191.298 228.739C190.832 228.78 190.439 228.931 190.12 229.192C189.803 229.449 189.569 229.769 189.42 230.151C189.27 230.534 189.214 230.934 189.251 231.354L189.31 232.027C189.36 232.602 189.502 233.08 189.735 233.462C189.971 233.841 190.276 234.119 190.651 234.295C191.025 234.469 191.449 234.535 191.921 234.494C192.228 234.467 192.502 234.4 192.742 234.292C192.985 234.181 193.19 234.03 193.356 233.839C193.522 233.645 193.643 233.412 193.719 233.139L194.876 233.357C194.79 233.75 194.62 234.105 194.365 234.42C194.109 234.731 193.782 234.986 193.384 235.184C192.985 235.379 192.528 235.499 192.013 235.544ZM196.927 234.954L196.261 227.347L197.39 227.248L197.494 228.437L197.593 228.428C197.716 228.008 197.945 227.67 198.278 227.415C198.612 227.156 199.026 227.005 199.521 226.962C200.023 226.918 200.451 226.995 200.804 227.194C201.161 227.389 201.451 227.681 201.674 228.071L201.754 228.064C201.914 227.654 202.179 227.316 202.548 227.051C202.918 226.783 203.375 226.625 203.919 226.577C204.599 226.517 205.174 226.682 205.644 227.07C206.114 227.455 206.388 228.094 206.466 228.989L206.911 234.081L205.743 234.183L205.297 229.091C205.248 228.53 205.059 228.142 204.731 227.928C204.403 227.714 204.031 227.625 203.615 227.662C203.08 227.708 202.68 227.906 202.414 228.256C202.148 228.602 202.037 229.021 202.08 229.513L202.513 234.465L201.325 234.569L200.869 229.359C200.831 228.927 200.66 228.591 200.357 228.351C200.052 228.108 199.679 228.006 199.237 228.045C198.933 228.071 198.656 228.177 198.406 228.362C198.159 228.546 197.968 228.789 197.831 229.091C197.698 229.389 197.647 229.724 197.68 230.097L198.096 234.852L196.927 234.954ZM212.252 233.773C211.519 233.837 210.872 233.731 210.313 233.454C209.756 233.173 209.308 232.753 208.97 232.194C208.634 231.631 208.432 230.96 208.364 230.181C208.296 229.401 208.378 228.702 208.61 228.083C208.845 227.46 209.204 226.96 209.686 226.581C210.172 226.2 210.758 225.979 211.445 225.919C211.841 225.884 212.238 225.916 212.636 226.014C213.034 226.112 213.404 226.296 213.747 226.566C214.09 226.832 214.377 227.199 214.607 227.668C214.838 228.137 214.984 228.726 215.046 229.436L215.09 229.932L209.226 230.445L209.137 229.434L213.813 229.025C213.775 228.596 213.656 228.22 213.455 227.899C213.257 227.577 212.993 227.332 212.662 227.165C212.334 226.997 211.959 226.932 211.537 226.969C211.071 227.009 210.678 227.16 210.359 227.421C210.042 227.678 209.809 227.998 209.659 228.38C209.51 228.763 209.453 229.164 209.49 229.583L209.549 230.257C209.599 230.831 209.741 231.309 209.974 231.692C210.21 232.07 210.515 232.348 210.89 232.525C211.264 232.698 211.688 232.764 212.16 232.723C212.467 232.696 212.741 232.629 212.981 232.522C213.224 232.41 213.429 232.259 213.595 232.069C213.761 231.874 213.882 231.641 213.958 231.368L215.115 231.586C215.029 231.98 214.859 232.334 214.604 232.649C214.348 232.961 214.021 233.216 213.623 233.414C213.224 233.608 212.767 233.728 212.252 233.773ZM217.934 228.505L218.335 233.081L217.166 233.183L216.5 225.576L217.63 225.477L217.734 226.666L217.833 226.657C217.977 226.255 218.221 225.921 218.563 225.655C218.906 225.386 219.364 225.226 219.939 225.175C220.454 225.13 220.914 225.197 221.319 225.374C221.723 225.548 222.051 225.839 222.303 226.246C222.555 226.65 222.709 227.176 222.765 227.823L223.188 232.657L222.02 232.759L221.604 228.004C221.551 227.407 221.355 226.955 221.016 226.648C220.676 226.339 220.235 226.208 219.694 226.255C219.321 226.288 218.994 226.398 218.715 226.585C218.438 226.772 218.229 227.028 218.088 227.354C217.947 227.679 217.896 228.062 217.934 228.505ZM227.967 224.573L228.054 225.563L224.111 225.908L224.025 224.918L227.967 224.573ZM225.014 222.995L226.183 222.892L226.817 230.143C226.846 230.473 226.916 230.717 227.026 230.873C227.139 231.027 227.274 231.125 227.431 231.167C227.591 231.207 227.757 231.219 227.928 231.204C228.057 231.193 228.162 231.177 228.244 231.156C228.325 231.133 228.39 231.114 228.438 231.099L228.768 232.128C228.691 232.165 228.583 232.204 228.444 232.247C228.305 232.292 228.126 232.324 227.908 232.343C227.578 232.372 227.248 232.33 226.919 232.215C226.593 232.101 226.313 231.907 226.08 231.635C225.849 231.362 225.715 231.005 225.676 230.562L225.014 222.995ZM232.645 232.009C232.163 232.051 231.717 231.998 231.309 231.851C230.9 231.701 230.564 231.462 230.303 231.136C230.041 230.806 229.889 230.393 229.845 229.898C229.807 229.462 229.862 229.102 230.01 228.816C230.158 228.527 230.368 228.292 230.642 228.112C230.916 227.931 231.223 227.788 231.563 227.682C231.906 227.572 232.252 227.478 232.601 227.401C233.058 227.301 233.429 227.224 233.714 227.169C234.001 227.111 234.208 227.038 234.333 226.95C234.462 226.863 234.518 226.725 234.502 226.536L234.498 226.497C234.456 226.008 234.289 225.64 233.997 225.393C233.71 225.145 233.297 225.045 232.758 225.092C232.2 225.141 231.774 225.301 231.478 225.573C231.182 225.845 230.982 226.126 230.878 226.414L229.734 226.115C229.892 225.636 230.124 225.253 230.432 224.966C230.742 224.676 231.09 224.463 231.474 224.326C231.861 224.186 232.246 224.099 232.629 224.065C232.873 224.044 233.156 224.049 233.478 224.081C233.804 224.109 234.123 224.199 234.435 224.351C234.751 224.503 235.024 224.751 235.254 225.093C235.483 225.436 235.625 225.909 235.678 226.513L236.116 231.525L234.947 231.628L234.857 230.598L234.798 230.603C234.733 230.775 234.616 230.963 234.448 231.167C234.279 231.372 234.047 231.553 233.752 231.712C233.456 231.871 233.087 231.97 232.645 232.009ZM232.731 230.943C233.194 230.903 233.575 230.778 233.876 230.569C234.181 230.359 234.401 230.103 234.538 229.802C234.678 229.5 234.734 229.191 234.706 228.874L234.613 227.804C234.568 227.868 234.464 227.932 234.3 227.996C234.139 228.057 233.951 228.115 233.736 228.17C233.525 228.222 233.318 228.27 233.115 228.315C232.916 228.355 232.754 228.389 232.63 228.417C232.33 228.483 232.052 228.572 231.795 228.685C231.542 228.793 231.342 228.942 231.195 229.131C231.052 229.317 230.993 229.558 231.019 229.855C231.055 230.262 231.232 230.555 231.551 230.737C231.872 230.915 232.266 230.984 232.731 230.943ZM240.892 223.442L240.979 224.433L237.037 224.778L236.95 223.787L240.892 223.442ZM237.939 221.864L239.108 221.762L239.743 229.012C239.772 229.343 239.841 229.586 239.951 229.743C240.064 229.896 240.199 229.994 240.356 230.037C240.516 230.076 240.682 230.088 240.854 230.073C240.982 230.062 241.087 230.046 241.169 230.025C241.25 230.002 241.315 229.983 241.363 229.968L241.693 230.998C241.616 231.034 241.508 231.074 241.369 231.116C241.23 231.161 241.051 231.194 240.833 231.213C240.503 231.241 240.174 231.199 239.844 231.085C239.518 230.97 239.238 230.777 239.005 230.504C238.775 230.232 238.64 229.874 238.602 229.432L237.939 221.864ZM243.316 230.896L242.65 223.288L243.819 223.186L244.485 230.793L243.316 230.896ZM243.134 221.968C242.906 221.988 242.703 221.928 242.524 221.787C242.349 221.646 242.252 221.467 242.232 221.249C242.213 221.031 242.278 220.837 242.426 220.668C242.578 220.498 242.767 220.403 242.995 220.384C243.223 220.364 243.425 220.424 243.6 220.565C243.779 220.706 243.877 220.885 243.897 221.103C243.916 221.321 243.849 221.515 243.698 221.684C243.55 221.854 243.362 221.948 243.134 221.968ZM249.73 230.494C249.043 230.554 248.426 230.443 247.879 230.162C247.336 229.88 246.893 229.458 246.551 228.896C246.212 228.333 246.008 227.659 245.94 226.873C245.87 226.081 245.953 225.376 246.189 224.76C246.428 224.144 246.791 223.65 247.277 223.278C247.767 222.906 248.355 222.689 249.042 222.629C249.729 222.569 250.344 222.68 250.888 222.962C251.435 223.243 251.877 223.667 252.216 224.233C252.559 224.799 252.765 225.478 252.834 226.27C252.903 227.056 252.817 227.755 252.578 228.368C252.342 228.981 251.98 229.474 251.49 229.846C251.003 230.218 250.417 230.434 249.73 230.494ZM249.638 229.444C250.16 229.399 250.577 229.227 250.891 228.93C251.204 228.633 251.423 228.26 251.546 227.81C251.67 227.36 251.709 226.881 251.665 226.372C251.621 225.864 251.498 225.397 251.298 224.972C251.098 224.547 250.817 224.214 250.457 223.973C250.096 223.731 249.655 223.634 249.134 223.679C248.612 223.725 248.195 223.898 247.882 224.198C247.568 224.498 247.35 224.875 247.227 225.328C247.104 225.782 247.064 226.262 247.109 226.771C247.153 227.279 247.275 227.744 247.475 228.166C247.675 228.588 247.955 228.918 248.315 229.156C248.675 229.394 249.116 229.49 249.638 229.444ZM255.716 225.199L256.116 229.776L254.947 229.878L254.282 222.271L255.411 222.172L255.515 223.361L255.614 223.352C255.759 222.95 256.002 222.616 256.345 222.35C256.687 222.08 257.146 221.92 257.72 221.87C258.235 221.825 258.695 221.891 259.1 222.069C259.505 222.243 259.833 222.534 260.085 222.941C260.336 223.345 260.49 223.87 260.547 224.517L260.97 229.351L259.801 229.453L259.385 224.699C259.333 224.101 259.137 223.649 258.797 223.343C258.457 223.033 258.017 222.902 257.475 222.949C257.102 222.982 256.776 223.092 256.496 223.28C256.22 223.467 256.011 223.723 255.87 224.048C255.728 224.373 255.677 224.757 255.716 225.199Z" fill="white"/>
<path d="M283.569 256.624L240.633 237.508C232.56 233.914 223.102 237.544 219.508 245.617C215.914 253.689 219.545 263.147 227.617 266.741L270.554 285.858C278.626 289.452 288.084 285.822 291.678 277.749C295.273 269.676 291.642 260.219 283.569 256.624Z" fill="#D6D8E8"/>
<path d="M211.972 63.6452C211.86 64.7133 211.57 65.616 211.103 66.3535C210.636 67.091 210.044 67.6355 209.327 67.987C208.611 68.3384 207.82 68.4689 206.957 68.3783C206.093 68.2878 205.347 67.9963 204.719 67.5039C204.091 67.0115 203.625 66.3561 203.32 65.5378C203.016 64.7194 202.92 63.7762 203.032 62.7082C203.144 61.6402 203.434 60.7374 203.901 59.9999C204.368 59.2624 204.96 58.7179 205.677 58.3665C206.393 58.015 207.184 57.8846 208.047 57.9751C208.911 58.0656 209.657 58.3571 210.285 58.8495C210.913 59.3419 211.379 59.9973 211.684 60.8157C211.988 61.634 212.084 62.5772 211.972 63.6452ZM210.785 63.5209C210.877 62.644 210.808 61.8886 210.578 61.2546C210.351 60.621 210.005 60.1232 209.54 59.7612C209.078 59.3995 208.54 59.1865 207.927 59.1222C207.314 59.058 206.742 59.1547 206.212 59.4124C205.685 59.6704 205.243 60.0856 204.887 60.6581C204.533 61.2309 204.311 61.9558 204.219 62.8326C204.127 63.7094 204.194 64.4646 204.421 65.0983C204.651 65.7323 204.998 66.2301 205.459 66.5918C205.925 66.9538 206.464 67.1669 207.077 67.2312C207.69 67.2955 208.26 67.1986 208.787 66.9406C209.317 66.6829 209.759 66.2676 210.112 65.6948C210.469 65.1223 210.693 64.3977 210.785 63.5209ZM213.046 71.756L214.141 61.3132L215.268 61.4314L215.142 62.6378L215.28 62.6523C215.38 62.5295 215.516 62.3738 215.689 62.1853C215.866 61.9939 216.106 61.8324 216.41 61.701C216.717 61.5666 217.118 61.5253 217.612 61.5771C218.252 61.6441 218.799 61.8631 219.253 62.234C219.707 62.6048 220.041 63.098 220.253 63.7134C220.465 64.3288 220.529 65.0354 220.446 65.8331C220.361 66.6374 220.151 67.3203 219.816 67.8816C219.481 68.4397 219.054 68.8549 218.536 69.1271C218.018 69.3961 217.442 69.4974 216.809 69.431C216.321 69.3799 215.939 69.2582 215.663 69.0659C215.387 68.8704 215.18 68.6604 215.044 68.4362C214.908 68.2086 214.804 68.0212 214.733 67.8737L214.634 67.8634L214.213 71.8783L213.046 71.756ZM214.89 65.2308C214.83 65.8044 214.861 66.3192 214.983 66.7752C215.106 67.2279 215.315 67.5949 215.612 67.8759C215.91 68.1537 216.293 68.3172 216.761 68.3662C217.249 68.4174 217.669 68.3315 218.023 68.1086C218.379 67.8827 218.663 67.5592 218.874 67.1381C219.088 66.714 219.224 66.2316 219.281 65.691C219.337 65.157 219.305 64.6671 219.185 64.2213C219.069 63.7726 218.859 63.4057 218.555 63.1206C218.256 62.8326 217.859 62.6626 217.364 62.6108C216.889 62.5611 216.478 62.6396 216.13 62.8463C215.782 63.0498 215.503 63.3572 215.293 63.7684C215.084 64.1764 214.949 64.6638 214.89 65.2308ZM225.929 62.5488L225.825 63.5377L221.889 63.1251L221.993 62.1362L225.929 62.5488ZM223.331 60.4369L224.498 60.5592L223.739 67.7979C223.704 68.1276 223.726 68.3798 223.804 68.5546C223.886 68.7265 224 68.8484 224.146 68.9204C224.295 68.9893 224.456 69.0328 224.627 69.0508C224.756 69.0643 224.862 69.0687 224.946 69.0642C225.03 69.0563 225.097 69.0501 225.148 69.0454L225.275 70.1185C225.193 70.1398 225.079 70.1579 224.934 70.1727C224.789 70.1909 224.608 70.1885 224.39 70.1657C224.061 70.1311 223.745 70.0264 223.444 69.8515C223.145 69.6769 222.907 69.4337 222.73 69.1219C222.556 68.8104 222.492 68.4338 222.539 67.9921L223.331 60.4369ZM226.888 70.3275L227.684 62.7327L228.851 62.8551L228.055 70.4498L226.888 70.3275ZM228.41 61.5291C228.182 61.5053 227.994 61.4073 227.846 61.2351C227.701 61.0632 227.639 60.8685 227.662 60.651C227.685 60.4334 227.785 60.2556 227.963 60.1176C228.144 59.98 228.348 59.9231 228.576 59.9469C228.803 59.9707 228.99 60.0686 229.135 60.2405C229.283 60.4127 229.346 60.6075 229.323 60.8251C229.301 61.0427 229.199 61.2203 229.018 61.3579C228.84 61.4959 228.637 61.553 228.41 61.5291ZM230.192 70.6738L230.988 63.0791L232.115 63.1972L231.991 64.3839L232.09 64.3943C232.291 64.0054 232.579 63.7174 232.955 63.5302C233.332 63.3397 233.767 63.2704 234.262 63.3223C234.763 63.3748 235.168 63.5322 235.477 63.7945C235.79 64.0539 236.019 64.3962 236.164 64.8214L236.243 64.8296C236.479 64.4578 236.803 64.1768 237.216 63.9869C237.63 63.7936 238.109 63.7255 238.652 63.7825C239.332 63.8537 239.865 64.1245 240.252 64.595C240.64 65.0622 240.787 65.7424 240.693 66.6357L240.16 71.7187L238.993 71.5964L239.526 66.5134C239.585 65.953 239.473 65.5365 239.192 65.2637C238.911 64.9909 238.562 64.8328 238.147 64.7893C237.613 64.7333 237.182 64.8514 236.855 65.1437C236.528 65.4327 236.339 65.8228 236.288 66.3139L235.769 71.2585L234.583 71.1341L235.128 65.9324C235.173 65.5006 235.07 65.1382 234.817 64.8451C234.565 64.5487 234.218 64.3774 233.776 64.3311C233.473 64.2993 233.181 64.3504 232.9 64.4842C232.623 64.6185 232.388 64.8205 232.197 65.0903C232.009 65.3572 231.895 65.6769 231.856 66.0494L231.359 70.7961L230.192 70.6738ZM242.294 71.9423L243.09 64.3476L244.257 64.4699L243.461 72.0646L242.294 71.9423ZM243.816 63.144C243.588 63.1201 243.4 63.0221 243.252 62.8499C243.106 62.678 243.045 62.4833 243.068 62.2658C243.091 62.0482 243.191 61.8704 243.369 61.7324C243.55 61.5948 243.754 61.5379 243.982 61.5617C244.209 61.5856 244.395 61.6834 244.541 61.8553C244.689 62.0275 244.752 62.2223 244.729 62.4399C244.707 62.6575 244.605 62.8351 244.424 62.9727C244.246 63.1107 244.043 63.1678 243.816 63.144ZM251.595 66.9587L250.516 67.1455C250.468 66.9639 250.389 66.7839 250.278 66.6056C250.17 66.4244 250.013 66.268 249.807 66.1364C249.601 66.0048 249.328 65.9212 248.988 65.8856C248.524 65.8369 248.125 65.9034 247.793 66.0852C247.464 66.2641 247.283 66.5166 247.248 66.843C247.218 67.1331 247.299 67.3732 247.493 67.5634C247.686 67.7537 248.001 67.9283 248.438 68.0874L249.536 68.4824C250.198 68.7184 250.677 69.0236 250.975 69.398C251.272 69.7692 251.393 70.2201 251.338 70.7508C251.292 71.1859 251.126 71.5618 250.84 71.8783C250.556 72.1952 250.182 72.4292 249.716 72.5804C249.251 72.7315 248.723 72.7762 248.133 72.7143C247.358 72.6331 246.734 72.3978 246.262 72.0084C245.79 71.6189 245.52 71.0941 245.452 70.4338L246.589 70.273C246.652 70.6928 246.819 71.0203 247.091 71.2554C247.366 71.4909 247.743 71.6337 248.221 71.6838C248.764 71.7408 249.208 71.6707 249.552 71.4734C249.9 71.2733 250.091 71.01 250.125 70.6837C250.153 70.42 250.084 70.1894 249.918 69.9921C249.752 69.7914 249.483 69.6266 249.11 69.4975L247.875 69.0681C247.197 68.8304 246.713 68.5214 246.422 68.1411C246.136 67.7578 246.02 67.3041 246.075 66.78C246.12 66.3515 246.28 65.985 246.555 65.6806C246.834 65.3765 247.192 65.1525 247.631 65.0085C248.072 64.8648 248.56 64.821 249.094 64.8769C249.846 64.9557 250.418 65.1824 250.812 65.5569C251.21 65.9318 251.471 66.3991 251.595 66.9587ZM255.089 73.4634C254.607 73.413 254.18 73.2765 253.807 73.0541C253.434 72.8284 253.15 72.5304 252.956 72.1601C252.762 71.7865 252.691 71.3525 252.742 70.858C252.788 70.4229 252.911 70.0792 253.11 69.8269C253.31 69.5712 253.562 69.381 253.865 69.2561C254.168 69.1313 254.497 69.0491 254.851 69.0095C255.208 68.967 255.566 68.9412 255.924 68.932C256.391 68.9211 256.77 68.9158 257.06 68.9162C257.353 68.9136 257.57 68.8813 257.71 68.8193C257.853 68.7577 257.934 68.6329 257.954 68.445L257.958 68.4055C258.009 67.9176 257.916 67.5245 257.677 67.2263C257.442 66.9283 257.055 66.7512 256.518 66.6949C255.961 66.6365 255.511 66.7127 255.169 66.9234C254.827 67.1342 254.577 67.3713 254.42 67.6347L253.354 67.123C253.6 66.6823 253.901 66.3506 254.258 66.128C254.618 65.9025 255 65.7592 255.403 65.6982C255.809 65.6342 256.204 65.6222 256.586 65.6623C256.83 65.6878 257.107 65.7469 257.417 65.8394C257.731 65.9289 258.027 66.0782 258.305 66.2873C258.587 66.4968 258.807 66.7915 258.967 67.1716C259.128 67.5516 259.176 68.0432 259.113 68.6464L258.588 73.6503L257.421 73.528L257.529 72.4995L257.47 72.4933C257.373 72.6498 257.223 72.8124 257.019 72.9809C256.815 73.1494 256.552 73.2836 256.232 73.3833C255.911 73.483 255.53 73.5097 255.089 73.4634ZM255.377 72.4338C255.838 72.4822 256.236 72.4323 256.572 72.2842C256.911 72.1364 257.176 71.9276 257.367 71.6578C257.562 71.3883 257.676 71.0953 257.71 70.7788L257.821 69.7108C257.766 69.765 257.651 69.808 257.478 69.8398C257.308 69.8687 257.113 69.8898 256.891 69.9033C256.674 69.9138 256.461 69.9215 256.254 69.9265C256.051 69.9285 255.885 69.9311 255.758 69.9345C255.451 69.9422 255.161 69.9768 254.888 70.0382C254.618 70.0966 254.394 70.2047 254.214 70.3624C254.038 70.5173 253.934 70.743 253.903 71.0397C253.861 71.4451 253.978 71.7674 254.257 72.0065C254.538 72.2427 254.912 72.3851 255.377 72.4338ZM264.817 66.625L264.713 67.6139L260.778 67.2013L260.881 66.2124L264.817 66.625ZM262.219 64.5131L263.386 64.6354L262.627 71.8742C262.593 72.2038 262.615 72.456 262.693 72.6309C262.775 72.8028 262.889 72.9247 263.034 72.9966C263.184 73.0656 263.344 73.109 263.516 73.127C263.644 73.1405 263.75 73.145 263.834 73.1404C263.918 73.1326 263.986 73.1263 264.036 73.1216L264.164 74.1947C264.081 74.2161 263.968 74.2342 263.823 74.249C263.678 74.2671 263.496 74.2647 263.279 74.2419C262.949 74.2074 262.634 74.1026 262.332 73.9277C262.034 73.7532 261.796 73.51 261.619 73.1981C261.445 72.8866 261.381 72.51 261.427 72.0683L262.219 64.5131ZM265.776 74.4037L266.572 66.809L267.739 66.9313L266.943 74.526L265.776 74.4037ZM267.298 65.6054C267.071 65.5815 266.883 65.4835 266.734 65.3113C266.589 65.1394 266.528 64.9447 266.551 64.7272C266.573 64.5096 266.674 64.3318 266.851 64.1938C267.033 64.0562 267.237 63.9993 267.464 64.0231C267.692 64.047 267.878 64.1448 268.023 64.3167C268.172 64.4889 268.235 64.6838 268.212 64.9013C268.189 65.1189 268.087 65.2965 267.906 65.4341C267.728 65.5721 267.526 65.6292 267.298 65.6054ZM272.149 75.2317C271.464 75.1598 270.879 74.9336 270.396 74.553C269.916 74.1728 269.562 73.6741 269.333 73.0569C269.108 72.4401 269.036 71.7395 269.118 70.9549C269.201 70.1638 269.417 69.4883 269.766 68.9283C270.118 68.3686 270.568 67.9526 271.116 67.6802C271.668 67.4081 272.287 67.308 272.972 67.3798C273.658 67.4517 274.241 67.6777 274.721 68.058C275.204 68.4386 275.558 68.9389 275.783 69.559C276.011 70.1795 276.084 70.8852 276.001 71.6764C275.919 72.4609 275.702 73.1313 275.35 73.6877C275.002 74.2444 274.552 74.6587 274 74.9308C273.452 75.2033 272.835 75.3036 272.149 75.2317ZM272.259 74.1835C272.78 74.238 273.222 74.1495 273.587 73.9177C273.951 73.6859 274.237 73.361 274.444 72.9428C274.651 72.5246 274.781 72.0617 274.834 71.5541C274.887 71.0464 274.856 70.5649 274.741 70.1096C274.625 69.6542 274.413 69.2738 274.105 68.9683C273.798 68.6627 273.383 68.4826 272.862 68.4281C272.342 68.3735 271.899 68.4637 271.534 68.6988C271.17 68.9338 270.884 69.2621 270.676 69.6836C270.469 70.105 270.338 70.5696 270.285 71.0772C270.232 71.5849 270.263 72.0647 270.379 72.5168C270.495 72.9688 270.707 73.346 271.016 73.6482C271.324 73.9504 271.738 74.1289 272.259 74.1835ZM279.034 71.1745L278.555 75.7432L277.388 75.6209L278.185 68.0261L279.312 68.1443L279.188 69.331L279.286 69.3413C279.505 68.9743 279.808 68.6928 280.195 68.4968C280.582 68.2975 281.063 68.2278 281.636 68.288C282.151 68.3419 282.589 68.4945 282.953 68.7459C283.317 68.994 283.584 69.3419 283.753 69.7896C283.923 70.234 283.975 70.7792 283.907 71.4253L283.401 76.2511L282.234 76.1288L282.732 71.3821C282.794 70.7854 282.688 70.3044 282.413 69.939C282.138 69.5703 281.731 69.3576 281.19 69.301C280.818 69.2619 280.476 69.3078 280.166 69.4385C279.859 69.5697 279.605 69.7813 279.405 70.0736C279.204 70.3658 279.081 70.7328 279.034 71.1745Z" fill="black"/>
<path d="M240.882 251.958C241.03 251.473 240.966 251.018 240.689 250.592C240.413 250.167 239.992 249.83 239.428 249.583C239.015 249.401 238.624 249.31 238.256 249.307C237.891 249.306 237.571 249.385 237.295 249.542C237.023 249.702 236.821 249.93 236.691 250.227C236.581 250.476 236.547 250.716 236.586 250.947C236.63 251.176 236.721 251.391 236.857 251.592C236.994 251.79 237.15 251.973 237.323 252.139C237.497 252.302 237.661 252.445 237.814 252.566L238.649 253.237C238.864 253.407 239.095 253.614 239.343 253.857C239.595 254.101 239.814 254.38 240.002 254.694C240.194 255.006 240.314 255.352 240.361 255.731C240.408 256.11 240.336 256.518 240.144 256.955C239.923 257.459 239.591 257.856 239.149 258.147C238.709 258.439 238.185 258.595 237.576 258.613C236.97 258.633 236.309 258.486 235.593 258.172C234.925 257.879 234.394 257.517 234 257.087C233.609 256.659 233.358 256.19 233.248 255.682C233.141 255.176 233.182 254.659 233.369 254.134L234.534 254.645C234.41 255.01 234.401 255.354 234.506 255.675C234.615 255.995 234.805 256.28 235.074 256.533C235.348 256.783 235.67 256.989 236.04 257.152C236.471 257.341 236.889 257.441 237.293 257.452C237.698 257.46 238.057 257.382 238.368 257.218C238.68 257.051 238.91 256.797 239.06 256.458C239.195 256.148 239.22 255.858 239.132 255.588C239.044 255.318 238.886 255.06 238.657 254.815C238.428 254.569 238.169 254.329 237.882 254.094L236.878 253.263C236.242 252.734 235.796 252.182 235.542 251.607C235.288 251.032 235.298 250.431 235.574 249.802C235.803 249.28 236.144 248.887 236.597 248.622C237.054 248.356 237.569 248.22 238.144 248.215C238.722 248.209 239.309 248.336 239.904 248.597C240.504 248.861 240.991 249.203 241.364 249.624C241.738 250.041 241.981 250.495 242.091 250.985C242.205 251.477 242.166 251.961 241.975 252.438L240.882 251.958ZM243.521 261.63C242.865 261.342 242.368 260.939 242.031 260.422C241.693 259.905 241.516 259.318 241.5 258.663C241.483 258.008 241.628 257.332 241.935 256.633C242.246 255.923 242.652 255.354 243.151 254.925C243.655 254.495 244.209 254.23 244.814 254.13C245.424 254.028 246.044 254.115 246.675 254.392C247.167 254.608 247.57 254.894 247.885 255.249C248.199 255.604 248.411 256.001 248.519 256.439C248.627 256.878 248.615 257.329 248.484 257.792L247.41 257.321C247.468 256.966 247.409 256.604 247.235 256.234C247.065 255.863 246.743 255.573 246.27 255.366C245.851 255.182 245.436 255.13 245.024 255.21C244.617 255.288 244.239 255.486 243.89 255.803C243.545 256.119 243.257 256.541 243.025 257.069C242.788 257.609 242.666 258.117 242.66 258.592C242.658 259.068 242.764 259.486 242.979 259.845C243.198 260.205 243.519 260.478 243.944 260.665C244.223 260.787 244.498 260.85 244.768 260.853C245.039 260.855 245.293 260.8 245.53 260.688C245.768 260.575 245.976 260.405 246.155 260.18L247.229 260.651C246.987 261.037 246.674 261.343 246.289 261.569C245.908 261.793 245.48 261.916 245.003 261.938C244.531 261.959 244.037 261.856 243.521 261.63ZM249.89 264.447C249.447 264.253 249.082 263.993 248.794 263.667C248.507 263.339 248.328 262.969 248.255 262.557C248.184 262.142 248.248 261.707 248.448 261.251C248.624 260.851 248.845 260.561 249.112 260.381C249.381 260.199 249.678 260.094 250.005 260.067C250.332 260.04 250.67 260.062 251.019 260.132C251.373 260.2 251.721 260.285 252.064 260.385C252.513 260.517 252.876 260.627 253.152 260.715C253.432 260.802 253.648 260.837 253.8 260.821C253.956 260.806 254.071 260.712 254.147 260.539L254.163 260.502C254.36 260.053 254.39 259.65 254.254 259.293C254.12 258.938 253.806 258.652 253.311 258.434C252.798 258.209 252.347 258.145 251.957 258.242C251.567 258.339 251.257 258.488 251.027 258.691L250.167 257.88C250.536 257.535 250.924 257.31 251.331 257.207C251.743 257.102 252.15 257.081 252.552 257.146C252.959 257.208 253.339 257.317 253.691 257.472C253.915 257.57 254.161 257.711 254.429 257.893C254.7 258.074 254.937 258.306 255.138 258.59C255.342 258.875 255.463 259.223 255.5 259.634C255.537 260.044 255.433 260.528 255.189 261.083L253.167 265.69L252.093 265.218L252.509 264.272L252.454 264.248C252.314 264.367 252.122 264.476 251.876 264.575C251.63 264.673 251.339 264.721 251.004 264.719C250.668 264.716 250.297 264.626 249.89 264.447ZM250.478 263.554C250.903 263.741 251.298 263.814 251.662 263.775C252.03 263.737 252.346 263.619 252.611 263.42C252.878 263.223 253.076 262.979 253.204 262.687L253.635 261.704C253.566 261.739 253.444 261.745 253.269 261.722C253.099 261.698 252.906 261.659 252.691 261.604C252.48 261.548 252.276 261.491 252.077 261.433C251.882 261.373 251.724 261.325 251.602 261.289C251.307 261.203 251.02 261.148 250.741 261.123C250.467 261.097 250.22 261.132 250.001 261.227C249.786 261.321 249.618 261.505 249.499 261.778C249.335 262.151 249.349 262.494 249.541 262.806C249.738 263.117 250.05 263.366 250.478 263.554ZM260.295 257.699L256.203 267.022L255.128 266.551L259.22 257.227L260.295 257.699ZM258.17 267.886L261.239 260.893L262.314 261.365L259.245 268.357L258.17 267.886ZM262.297 259.968C262.088 259.876 261.939 259.725 261.849 259.516C261.763 259.308 261.764 259.104 261.852 258.904C261.94 258.703 262.09 258.565 262.301 258.487C262.515 258.411 262.727 258.419 262.937 258.511C263.146 258.603 263.294 258.753 263.38 258.961C263.469 259.17 263.47 259.375 263.382 259.575C263.294 259.775 263.143 259.914 262.928 259.99C262.717 260.067 262.507 260.06 262.297 259.968ZM264.133 265.486L262.287 269.693L261.213 269.221L264.282 262.229L265.32 262.684L264.84 263.777L264.931 263.817C265.251 263.534 265.625 263.358 266.053 263.289C266.483 263.217 266.962 263.296 267.49 263.528C267.963 263.736 268.335 264.015 268.605 264.365C268.876 264.712 269.024 265.125 269.05 265.603C269.077 266.078 268.959 266.613 268.698 267.208L266.748 271.651L265.674 271.179L267.592 266.809C267.833 266.26 267.878 265.769 267.728 265.337C267.578 264.903 267.255 264.576 266.757 264.357C266.414 264.207 266.075 264.147 265.739 264.177C265.407 264.208 265.101 264.333 264.821 264.55C264.541 264.768 264.312 265.08 264.133 265.486ZM270.319 276.519C269.8 276.291 269.383 276.029 269.069 275.731C268.753 275.437 268.517 275.128 268.363 274.803C268.211 274.482 268.115 274.169 268.076 273.862L269.195 273.637C269.236 273.807 269.295 274.007 269.372 274.236C269.448 274.468 269.588 274.701 269.792 274.936C269.999 275.175 270.313 275.387 270.735 275.572C271.299 275.82 271.825 275.888 272.312 275.776C272.799 275.664 273.171 275.317 273.426 274.734L274.05 273.314L273.959 273.274C273.824 273.366 273.642 273.475 273.414 273.599C273.19 273.722 272.911 273.797 272.577 273.824C272.248 273.849 271.855 273.762 271.4 273.562C270.835 273.314 270.387 272.958 270.055 272.494C269.726 272.031 269.543 271.488 269.506 270.863C269.472 270.24 269.615 269.564 269.934 268.836C270.249 268.12 270.648 267.551 271.133 267.131C271.62 266.707 272.151 266.448 272.728 266.354C273.307 266.257 273.89 266.337 274.479 266.596C274.934 266.796 275.262 267.03 275.463 267.299C275.668 267.566 275.799 267.827 275.858 268.081C275.921 268.333 275.965 268.537 275.991 268.693L276.1 268.741L276.588 267.63L277.626 268.086L274.469 275.278C274.205 275.879 273.854 276.308 273.416 276.564C272.979 276.825 272.493 276.943 271.958 276.918C271.424 276.897 270.878 276.764 270.319 276.519ZM271.969 272.661C272.4 272.85 272.808 272.911 273.192 272.845C273.576 272.778 273.926 272.593 274.243 272.291C274.561 271.989 274.833 271.58 275.059 271.064C275.28 270.56 275.4 270.082 275.417 269.63C275.434 269.178 275.342 268.777 275.141 268.428C274.939 268.079 274.62 267.809 274.183 267.617C273.728 267.417 273.298 267.366 272.893 267.463C272.491 267.562 272.129 267.772 271.807 268.094C271.488 268.418 271.224 268.816 271.017 269.289C270.803 269.775 270.691 270.238 270.679 270.678C270.671 271.116 270.771 271.507 270.978 271.851C271.19 272.194 271.52 272.464 271.969 272.661Z" fill="black"/>
<defs>
<linearGradient id="paint0_linear_361_575" x1="90.8408" y1="90.8409" x2="145.729" y2="145.73" gradientUnits="userSpaceOnUse">
<stop/>
<stop offset="1" stop-opacity="0.15"/>
</linearGradient>
<linearGradient id="paint1_linear_361_575" x1="108.405" y1="108.405" x2="152.316" y2="152.316" gradientUnits="userSpaceOnUse">
<stop/>
<stop offset="1" stop-opacity="0.15"/>
</linearGradient>
<linearGradient id="paint2_linear_361_575" x1="125.969" y1="125.97" x2="158.902" y2="158.903" gradientUnits="userSpaceOnUse">
<stop/>
<stop offset="1" stop-opacity="0.15"/>
</linearGradient>
<linearGradient id="paint3_linear_361_575" x1="143.534" y1="143.534" x2="165.489" y2="165.49" gradientUnits="userSpaceOnUse">
<stop/>
<stop offset="1" stop-opacity="0.15"/>
</linearGradient>
<linearGradient id="paint4_linear_361_575" x1="161.099" y1="161.099" x2="172.076" y2="172.077" gradientUnits="userSpaceOnUse">
<stop/>
<stop offset="1" stop-opacity="0.15"/>
</linearGradient>
<linearGradient id="paint5_linear_361_575" x1="266.485" y1="266.485" x2="211.596" y2="211.596" gradientUnits="userSpaceOnUse">
<stop/>
<stop offset="1" stop-opacity="0.15"/>
</linearGradient>
<linearGradient id="paint6_linear_361_575" x1="248.92" y1="248.92" x2="205.009" y2="205.009" gradientUnits="userSpaceOnUse">
<stop/>
<stop offset="1" stop-opacity="0.15"/>
</linearGradient>
<linearGradient id="paint7_linear_361_575" x1="231.356" y1="231.356" x2="198.422" y2="198.423" gradientUnits="userSpaceOnUse">
<stop/>
<stop offset="1" stop-opacity="0.15"/>
</linearGradient>
<linearGradient id="paint8_linear_361_575" x1="213.791" y1="213.791" x2="191.836" y2="191.836" gradientUnits="userSpaceOnUse">
<stop/>
<stop offset="1" stop-opacity="0.15"/>
</linearGradient>
<linearGradient id="paint9_linear_361_575" x1="196.227" y1="196.227" x2="185.25" y2="185.249" gradientUnits="userSpaceOnUse">
<stop/>
<stop offset="1" stop-opacity="0.15"/>
</linearGradient>
</defs>
</svg>
