<svg width="160" height="33" viewBox="0 0 160 33" fill="none" xmlns="http://www.w3.org/2000/svg">
<path d="M23.9129 0.104653C23.9127 0.0824977 23.9056 0.0609634 23.8925 0.0431016C23.8794 0.0252397 23.861 0.0119555 23.8399 0.00513132C23.8188 -0.00169282 23.7961 -0.00171072 23.775 0.00507955C23.7539 0.0118698 23.7355 0.0251243 23.7224 0.0429651C22.9561 1.13964 20.3213 1.41381 19.8415 1.45082H19.7579C18.0183 1.44396 15.9004 1.43711 13.7495 1.433H12.0894C8.7254 1.433 5.73148 1.44259 4.52651 1.47412C2.96924 1.51113 1.88902 2.28155 1.17618 3.11913C0.418776 3.97833 0.00060403 5.08419 0 6.22957V10.8109C0.00203217 10.8404 0.0135162 10.8684 0.032744 10.8908C0.0519719 10.9132 0.0779164 10.9288 0.106718 10.9352C0.13552 10.9417 0.165642 10.9387 0.192601 10.9267C0.21956 10.9146 0.241917 10.8942 0.256347 10.8685C0.721062 9.87052 1.78072 7.94037 3.14745 7.74983C3.19269 7.74983 3.2393 7.7416 3.28453 7.7416C4.20848 7.69774 8.19488 7.69911 12.0894 7.7087C15.6673 7.72104 18.7695 7.73749 18.7695 7.73749C18.7695 7.73749 24.1007 7.87457 23.902 1.47961L23.9129 0.104653Z" fill="white"/>
<path d="M23.9131 24.3577C23.9139 24.3351 23.9073 24.3128 23.8943 24.2943C23.8813 24.2758 23.8626 24.262 23.8411 24.2551C23.8196 24.2481 23.7964 24.2483 23.775 24.2557C23.7536 24.2631 23.7352 24.2772 23.7226 24.296C22.9563 25.3927 20.3215 25.6668 19.8417 25.7039H19.7581C18.0185 25.7039 15.9006 25.6915 13.7497 25.6874C9.74412 25.6874 5.92907 25.6874 4.52944 25.7244C2.97217 25.7628 1.89195 26.5373 1.17911 27.3694C0.421486 28.2285 0.00328173 29.3344 0.00292969 30.4799V32.0001H3.15586C3.2011 31.9919 3.24697 31.9878 3.29295 31.9878C4.21689 31.948 8.20329 31.9453 12.0979 31.9535C15.6757 31.9658 18.778 31.9837 18.778 31.9837C18.778 31.9837 24.1092 32.1208 23.9104 25.7285L23.9131 24.3577Z" fill="white"/>
<path d="M9.58388 12.6183C9.58388 12.6183 3.69612 12.3441 1.08467 15.3668C-0.933206 17.6972 0.482872 21.611 0.482872 21.611C0.482872 21.611 3.24511 23.6275 6.68592 21.0709C9.88958 18.6884 9.58388 12.6183 9.58388 12.6183Z" fill="white"/>
<path d="M160 12.5585C160 16.0705 157.154 18.9177 153.641 18.9177C150.129 18.9177 147.282 16.0705 147.282 12.5585C147.282 9.04627 150.129 6.19922 153.641 6.19922C157.154 6.19922 160 9.04627 160 12.5585Z" fill="white"/>
<path d="M158.728 12.5586C158.728 15.3682 156.45 17.646 153.641 17.646C150.831 17.646 148.554 15.3682 148.554 12.5586C148.554 9.74884 150.831 7.47119 153.641 7.47119C156.45 7.47119 158.728 9.74884 158.728 12.5586Z" fill="black"/>
<path d="M151.732 15.102V10.0146H153.652C154.033 10.0146 154.349 10.0758 154.597 10.1984C154.846 10.3194 155.03 10.4824 155.152 10.6878C155.273 10.8915 155.334 11.1176 155.334 11.366C155.334 11.5845 155.292 11.7651 155.208 11.9074C155.126 12.0498 155.018 12.1625 154.881 12.2453C154.747 12.3281 154.602 12.3894 154.444 12.4291V12.4788C154.612 12.4888 154.781 12.5433 154.951 12.6428C155.121 12.7421 155.263 12.8846 155.378 13.07C155.491 13.2554 155.548 13.4823 155.548 13.7507C155.548 14.0057 155.486 14.235 155.361 14.4387C155.236 14.6424 155.038 14.8039 154.768 14.9231C154.499 15.0424 154.148 15.102 153.715 15.102H151.732ZM152.398 14.5555H153.715C154.15 14.5555 154.458 14.4777 154.64 14.322C154.824 14.1647 154.916 13.9741 154.916 13.7507C154.916 13.5785 154.869 13.4195 154.773 13.2737C154.679 13.1263 154.544 13.0087 154.369 12.9209C154.195 12.8315 153.987 12.7869 153.748 12.7869H152.398V14.5555ZM152.398 12.2503H153.63C153.83 12.2503 154.01 12.2138 154.171 12.1409C154.333 12.0682 154.462 11.9654 154.557 11.833C154.654 11.7005 154.702 11.5448 154.702 11.366C154.702 11.1424 154.618 10.9528 154.45 10.7971C154.282 10.6398 154.015 10.5612 153.652 10.5612H152.398V12.2503Z" fill="white"/>
<path d="M49.5073 16.7361C49.4495 16.1245 49.2013 15.6493 48.7628 15.3107C48.3243 14.972 47.7292 14.8027 46.9775 14.8027C46.4667 14.8027 46.0355 14.8785 45.6837 15.0302C45.3319 15.1767 45.0621 15.3814 44.8742 15.6443C44.6911 15.9071 44.5995 16.2053 44.5995 16.5389C44.5899 16.8169 44.6453 17.0595 44.7658 17.2668C44.891 17.474 45.0621 17.6534 45.2789 17.8051C45.4958 17.9517 45.7463 18.0806 46.0306 18.1918C46.3149 18.2979 46.6185 18.3889 46.9414 18.4647L48.2713 18.7983C48.917 18.9499 49.5097 19.1521 50.0494 19.4048C50.5891 19.6576 51.0565 19.9684 51.4516 20.3374C51.8467 20.7064 52.1527 21.1411 52.3695 21.6415C52.5912 22.1419 52.7044 22.7155 52.7092 23.3625C52.7044 24.3128 52.4731 25.1367 52.0154 25.8342C51.5624 26.5266 50.9071 27.0649 50.0494 27.4491C49.1965 27.8282 48.1677 28.0177 46.963 28.0177C45.768 28.0177 44.7272 27.8257 43.8406 27.4415C42.9588 27.0574 42.2697 26.4887 41.7734 25.7356C41.2819 24.9774 41.0241 24.0398 41 22.9228H44.0285C44.0622 23.4434 44.2044 23.8781 44.455 24.2268C44.7103 24.5705 45.0501 24.8309 45.4741 25.0078C45.9029 25.1796 46.3872 25.2655 46.9269 25.2655C47.457 25.2655 47.9171 25.1847 48.3074 25.0229C48.7026 24.8612 49.0085 24.6363 49.2254 24.3481C49.4422 24.06 49.5506 23.729 49.5506 23.3549C49.5506 23.0062 49.4519 22.713 49.2543 22.4755C49.0616 22.2379 48.7773 22.0357 48.4014 21.8689C48.0304 21.7021 47.575 21.5505 47.0353 21.414L45.4235 20.9894C44.1755 20.671 43.1901 20.1731 42.4673 19.4958C41.7445 18.8185 41.3855 17.9062 41.3903 16.7588C41.3855 15.8187 41.624 14.9973 42.1059 14.2947C42.5926 13.5922 43.2599 13.0437 44.108 12.6495C44.9561 12.2552 45.9198 12.0581 46.9992 12.0581C48.0978 12.0581 49.0567 12.2552 49.8759 12.6495C50.6999 13.0437 51.3408 13.5922 51.7985 14.2947C52.2563 14.9973 52.4924 15.8111 52.5069 16.7361H49.5073Z" fill="white"/>
<path d="M57.9441 12.2704V27.7979H54.8144V12.2704H57.9441Z" fill="white"/>
<path d="M60.519 27.7979V12.2704H70.4936V14.9771H63.6487V18.677H69.9804V21.3837H63.6487V25.0912H70.5225V27.7979H60.519Z" fill="white"/>
<path d="M78.2293 27.7979H72.9818V12.2704H78.2726C79.7616 12.2704 81.0433 12.5812 82.1179 13.203C83.1924 13.8196 84.0188 14.7067 84.5971 15.8642C85.1801 17.0216 85.4716 18.4066 85.4716 20.019C85.4716 21.6364 85.1801 23.0264 84.5971 24.1889C84.0188 25.3515 83.1876 26.2436 82.1034 26.8653C81.0241 27.487 79.7327 27.7979 78.2293 27.7979ZM76.1115 24.985H78.0992C79.0243 24.985 79.8025 24.8132 80.4338 24.4695C81.0698 24.1207 81.5469 23.5824 81.8649 22.8545C82.1878 22.1216 82.3492 21.1764 82.3492 20.019C82.3492 18.8716 82.1878 17.934 81.8649 17.2061C81.5469 16.4783 81.0722 15.9425 80.441 15.5988C79.8098 15.2551 79.0316 15.0832 78.1064 15.0832H76.1115V24.985Z" fill="white"/>
<path d="M92.546 32.4076C91.722 32.4076 91.0137 32.2964 90.421 32.074C89.8283 31.8566 89.3344 31.5685 88.9392 31.2096C88.5489 30.8558 88.2381 30.4767 88.0068 30.0724L89.3657 29.0716C89.5199 29.2839 89.715 29.5265 89.9512 29.7994C90.1873 30.0774 90.5101 30.3175 90.9197 30.5197C91.3341 30.7269 91.8762 30.8306 92.546 30.8306C93.4422 30.8306 94.1819 30.6031 94.765 30.1482C95.348 29.6933 95.6395 28.9806 95.6395 28.0101V25.6446H95.495C95.3697 25.8569 95.1914 26.1198 94.9601 26.4331C94.7336 26.7415 94.406 27.0169 93.9771 27.2595C93.5531 27.4971 92.9797 27.6159 92.2569 27.6159C91.3606 27.6159 90.5559 27.3935 89.8427 26.9487C89.1344 26.5039 88.573 25.8569 88.1586 25.0078C87.749 24.1586 87.5443 23.1275 87.5443 21.9144C87.5443 20.7215 87.7442 19.6828 88.1442 18.7983C88.5441 17.9087 89.1007 17.2213 89.8138 16.7361C90.527 16.2458 91.351 16.0006 92.2858 16.0006C93.0086 16.0006 93.582 16.127 94.006 16.3797C94.4349 16.6274 94.7626 16.9104 94.989 17.2289C95.2203 17.5422 95.3986 17.8 95.5239 18.0022H95.6974V16.1523H97.3453V28.1315C97.3453 29.1322 97.1285 29.946 96.6948 30.5728C96.266 31.2046 95.6877 31.6671 94.9601 31.9602C94.2373 32.2585 93.4326 32.4076 92.546 32.4076ZM92.4882 26.0086C93.1724 26.0086 93.7506 25.8443 94.2229 25.5157C94.6951 25.1872 95.0541 24.7146 95.2998 24.098C95.5456 23.4813 95.6684 22.7433 95.6684 21.8841C95.6684 21.045 95.548 20.3045 95.3071 19.6626C95.0661 19.0207 94.7095 18.5178 94.2373 18.1538C93.7651 17.7899 93.182 17.608 92.4882 17.608C91.7654 17.608 91.163 17.8 90.6812 18.1842C90.2041 18.5683 89.8451 19.0839 89.6042 19.7309C89.3681 20.3778 89.25 21.0956 89.25 21.8841C89.25 22.6928 89.3705 23.408 89.6114 24.0297C89.8572 24.6464 90.2186 25.1316 90.6956 25.4854C91.1775 25.8342 91.775 26.0086 92.4882 26.0086Z" fill="white"/>
<path d="M100.468 27.7979V16.1523H102.116V17.9112H102.231C102.434 17.335 102.8 16.8675 103.33 16.5086C103.86 16.1497 104.458 15.9703 105.123 15.9703C105.248 15.9703 105.404 15.9728 105.592 15.9779C105.78 15.9829 105.922 15.9905 106.019 16.0006V17.8202C105.961 17.8051 105.829 17.7823 105.621 17.752C105.419 17.7166 105.205 17.6989 104.978 17.6989C104.438 17.6989 103.956 17.8177 103.532 18.0553C103.113 18.2878 102.781 18.6113 102.535 19.0257C102.294 19.4352 102.174 19.9027 102.174 20.4284V27.7979H100.468Z" fill="white"/>
<path d="M112.213 28.0405C111.211 28.0405 110.332 27.7903 109.575 27.2899C108.823 26.7895 108.235 26.0894 107.811 25.1897C107.392 24.29 107.183 23.2387 107.183 22.0357C107.183 20.8226 107.392 19.7637 107.811 18.8589C108.235 17.9542 108.823 17.2516 109.575 16.7512C110.332 16.2508 111.211 16.0006 112.213 16.0006C113.215 16.0006 114.092 16.2508 114.844 16.7512C115.601 17.2516 116.189 17.9542 116.608 18.8589C117.032 19.7637 117.244 20.8226 117.244 22.0357C117.244 23.2387 117.032 24.29 116.608 25.1897C116.189 26.0894 115.601 26.7895 114.844 27.2899C114.092 27.7903 113.215 28.0405 112.213 28.0405ZM112.213 26.4331C112.975 26.4331 113.601 26.2284 114.092 25.819C114.584 25.4096 114.948 24.8713 115.184 24.2041C115.42 23.5369 115.538 22.8141 115.538 22.0357C115.538 21.2573 115.42 20.532 115.184 19.8597C114.948 19.1875 114.584 18.6441 114.092 18.2297C113.601 17.8152 112.975 17.608 112.213 17.608C111.452 17.608 110.825 17.8152 110.334 18.2297C109.842 18.6441 109.479 19.1875 109.243 19.8597C109.006 20.532 108.888 21.2573 108.888 22.0357C108.888 22.8141 109.006 23.5369 109.243 24.2041C109.479 24.8713 109.842 25.4096 110.334 25.819C110.825 26.2284 111.452 26.4331 112.213 26.4331Z" fill="white"/>
<path d="M126.844 23.0365V16.1523H128.55V27.7979H126.844V25.8266H126.729C126.468 26.418 126.064 26.9209 125.514 27.3354C124.965 27.7448 124.271 27.9495 123.433 27.9495C122.739 27.9495 122.122 27.7903 121.582 27.4718C121.043 27.1483 120.619 26.6631 120.31 26.0161C120.002 25.3641 119.848 24.5427 119.848 23.5521V16.1523H121.553V23.4308C121.553 24.2799 121.78 24.9572 122.233 25.4627C122.691 25.9681 123.274 26.2208 123.982 26.2208C124.406 26.2208 124.837 26.1071 125.276 25.8797C125.719 25.6522 126.09 25.3035 126.389 24.8334C126.693 24.3633 126.844 23.7644 126.844 23.0365Z" fill="white"/>
<path d="M131.674 32.165V16.1523H133.322V18.0022H133.525C133.65 17.8 133.823 17.5422 134.045 17.2289C134.272 16.9104 134.594 16.6274 135.014 16.3797C135.438 16.127 136.011 16.0006 136.734 16.0006C137.669 16.0006 138.493 16.2458 139.206 16.7361C139.919 17.2263 140.476 17.9213 140.876 18.821C141.275 19.7207 141.475 20.7822 141.475 22.0054C141.475 23.2387 141.275 24.3077 140.876 25.2125C140.476 26.1122 139.921 26.8097 139.213 27.305C138.505 27.7953 137.688 28.0405 136.763 28.0405C136.05 28.0405 135.479 27.9166 135.05 27.669C134.621 27.4162 134.291 27.1307 134.06 26.8122C133.828 26.4887 133.65 26.2208 133.525 26.0086H133.38V32.165H131.674ZM133.351 21.9751C133.351 22.8545 133.474 23.6304 133.72 24.3027C133.966 24.9699 134.325 25.493 134.797 25.8721C135.269 26.2461 135.847 26.4331 136.532 26.4331C137.245 26.4331 137.84 26.236 138.317 25.8418C138.799 25.4425 139.16 24.9067 139.401 24.2344C139.647 23.5571 139.77 22.804 139.77 21.9751C139.77 21.1562 139.649 20.4183 139.408 19.7612C139.172 19.099 138.813 18.5759 138.331 18.1918C137.854 17.8026 137.254 17.608 136.532 17.608C135.838 17.608 135.255 17.7924 134.782 18.1614C134.31 18.5254 133.954 19.0359 133.713 19.6929C133.472 20.345 133.351 21.1057 133.351 21.9751Z" fill="white"/>
</svg>
