<svg width="38" height="38" viewBox="0 0 38 38" fill="none" xmlns="http://www.w3.org/2000/svg">
<path d="M37.6881 19.4318C37.6881 18.0845 37.5673 16.7891 37.3426 15.5454H19.4482V22.8949H29.6737C29.2333 25.2699 27.8946 27.2822 25.8823 28.6294V33.3966H32.0227C35.6154 30.089 37.6881 25.2181 37.6881 19.4318Z" fill="#4285F4"/>
<path d="M19.4482 38.0002C24.5782 38.0002 28.879 36.2989 32.0227 33.397L25.8823 28.6298C24.181 29.7697 22.0045 30.4434 19.4482 30.4434C14.4995 30.4434 10.3109 27.1012 8.81693 22.6104H2.46924V27.5331C5.59551 33.7424 12.021 38.0002 19.4482 38.0002Z" fill="#34A853"/>
<path d="M8.81688 22.6096C8.43684 21.4695 8.22093 20.2518 8.22093 18.9996C8.22093 17.7473 8.43684 16.5296 8.81688 15.3895V10.4668H2.46918C2.13772 11.1265 1.84585 11.8032 1.59336 12.4969C1.34086 13.1906 1.12955 13.8967 0.959425 14.615C0.789298 15.3333 0.661552 16.0592 0.575988 16.7923C0.490625 17.5256 0.448043 18.2613 0.448243 18.9996C0.448243 22.0655 1.18233 24.9672 2.46918 27.5323L8.81688 22.6096Z" fill="#FBBC05"/>
<path d="M19.4482 7.55678C22.2378 7.55678 24.7424 8.51537 26.7113 10.3982L32.1608 4.94869C28.8704 1.8828 24.5696 0 19.4482 0C12.021 0 5.59551 4.25779 2.46924 10.4671L8.81694 15.3898C10.3109 10.899 14.4995 7.55678 19.4482 7.55678Z" fill="#EA4335"/>
</svg>
